<svg width="36" height="26" viewBox="0 0 36 26" fill="none" xmlns="http://www.w3.org/2000/svg">
<path d="M28.607 3.27679H7.39272C6.84026 3.31362 6.54562 3.60826 6.50879 4.16071V16.5357H3.857V4.16071C3.89383 3.16629 4.24372 2.33761 4.90667 1.67467C5.56961 1.01172 6.3983 0.66183 7.39272 0.625H28.607C29.6014 0.66183 30.4301 1.01172 31.0931 1.67467C31.756 2.33761 32.1059 3.16629 32.1427 4.16071V16.5357H29.4909V4.16071C29.4541 3.60826 29.1595 3.31362 28.607 3.27679ZM5.62486 22.7232H30.3749C31.5903 22.6496 32.4189 22.0603 32.8609 20.9554H3.13881C3.58078 22.0603 4.40946 22.6496 5.62486 22.7232ZM0.321289 20.0714C0.321289 19.5558 0.487026 19.1323 0.818499 18.8008C1.14997 18.4693 1.57352 18.3036 2.08915 18.3036H33.9106C34.4262 18.3036 34.8497 18.4693 35.1812 18.8008C35.5127 19.1323 35.6784 19.5558 35.6784 20.0714C35.6416 21.5815 35.126 22.8337 34.1316 23.8281C33.1371 24.8225 31.8849 25.3382 30.3749 25.375H5.62486C4.11482 25.3382 2.86258 24.8225 1.86816 23.8281C0.873744 22.8337 0.358119 21.5815 0.321289 20.0714Z" fill="white"/>
</svg>
