<svg width="36" height="30" viewBox="0 0 36 30" fill="none" xmlns="http://www.w3.org/2000/svg">
<path d="M17.8894 1.13341C18.2577 1.39122 18.4418 1.74111 18.4418 2.18307V10.5804H20.2097C21.0199 10.6541 21.4619 11.096 21.5356 11.9063C21.4619 12.7166 21.0199 13.1585 20.2097 13.2322H14.0222C13.2119 13.1585 12.7699 12.7166 12.6963 11.9063C12.7699 11.096 13.2119 10.6541 14.0222 10.5804H15.79V4.00617L14.9061 4.33765C14.0958 4.5218 13.525 4.24557 13.1935 3.50896C13.0093 2.6987 13.2856 2.12783 14.0222 1.79635L16.674 0.912423C17.1159 0.801932 17.5211 0.875593 17.8894 1.13341ZM5.51437 17.0441C5.88267 17.3019 6.06682 17.6518 6.06682 18.0938V26.4911H7.83468C8.64495 26.5648 9.08691 27.0067 9.16057 27.817C9.08691 28.6273 8.64495 29.0692 7.83468 29.1429H1.64718C0.836914 29.0692 0.39495 28.6273 0.321289 27.817C0.39495 27.0067 0.836914 26.5648 1.64718 26.4911H3.41504V19.9169L2.53111 20.2484C1.72084 20.3957 1.14997 20.1195 0.818499 19.4197C0.634347 18.6094 0.910575 18.0385 1.64718 17.7071L4.29897 16.8231C4.74093 16.7126 5.14607 16.7863 5.51437 17.0441ZM6.95075 0.857178C8.09249 0.894008 9.03167 1.28073 9.76828 2.01733C10.5049 2.75394 10.8916 3.69312 10.9284 4.83486V9.2545C10.8916 10.3962 10.5049 11.3354 9.76828 12.072C9.03167 12.8086 8.09249 13.1953 6.95075 13.2322H4.29897C3.15723 13.1953 2.21805 12.8086 1.48145 12.072C0.744838 11.3354 0.358119 10.3962 0.321289 9.2545V4.83486C0.358119 3.69312 0.744838 2.75394 1.48145 2.01733C2.21805 1.28073 3.15723 0.894008 4.29897 0.857178H6.95075ZM2.97307 9.2545C3.04674 10.0648 3.4887 10.5067 4.29897 10.5804H6.95075C7.76102 10.5067 8.20299 10.0648 8.27665 9.2545V4.83486C8.20299 4.02459 7.76102 3.58262 6.95075 3.50896H4.29897C3.4887 3.58262 3.04674 4.02459 2.97307 4.83486V9.2545ZM10.9284 20.7456C10.9653 19.6038 11.352 18.6647 12.0886 17.928C12.8252 17.1914 13.7644 16.8047 14.9061 16.7679H17.5579C18.6996 16.8047 19.6388 17.1914 20.3754 17.928C21.112 18.6647 21.4987 19.6038 21.5356 20.7456V25.1652C21.4987 26.307 21.112 27.2461 20.3754 27.9827C19.6388 28.7193 18.6996 29.1061 17.5579 29.1429H14.9061C13.7644 29.1061 12.8252 28.7193 12.0886 27.9827C11.352 27.2461 10.9653 26.307 10.9284 25.1652V20.7456ZM14.9061 19.4197C14.0958 19.4933 13.6539 19.9353 13.5802 20.7456V25.1652C13.6539 25.9755 14.0958 26.4174 14.9061 26.4911H17.5579C18.3682 26.4174 18.8101 25.9755 18.8838 25.1652V20.7456C18.8101 19.9353 18.3682 19.4933 17.5579 19.4197H14.9061ZM29.4909 11.4643C30.7432 11.5012 31.7928 11.9247 32.6399 12.735C33.4502 13.5821 33.8737 14.6317 33.9106 15.884V18.5357C34.4262 18.5357 34.8497 18.7015 35.1812 19.033C35.5127 19.3644 35.6784 19.788 35.6784 20.3036V27.375C35.6784 27.8907 35.5127 28.3142 35.1812 28.6457C34.8497 28.9772 34.4262 29.1429 33.9106 29.1429H25.0713C24.5557 29.1429 24.1321 28.9772 23.8006 28.6457C23.4692 28.3142 23.3034 27.8907 23.3034 27.375V20.3036C23.3034 19.788 23.4692 19.3644 23.8006 19.033C24.1321 18.7015 24.5557 18.5357 25.0713 18.5357V15.884C25.1081 14.6317 25.5317 13.5821 26.3419 12.735C27.189 11.9247 28.2387 11.5012 29.4909 11.4643ZM29.4909 14.1161C28.9753 14.1161 28.5518 14.2818 28.2203 14.6133C27.8888 14.9448 27.7231 15.3683 27.7231 15.884V18.5357H31.2588V15.884C31.2588 15.3683 31.0931 14.9448 30.7616 14.6133C30.4301 14.2818 30.0066 14.1161 29.4909 14.1161Z" fill="white"/>
</svg>
