<svg width="36" height="28" viewBox="0 0 36 28" fill="none" xmlns="http://www.w3.org/2000/svg">
<path d="M2.64138 0.281093L7.39654 4.05243C10.676 2.55847 14.2104 1.79327 18 1.75683C21.2794 1.75683 24.3766 2.32162 27.2917 3.4512C30.1703 4.58078 32.7574 6.16583 35.053 8.20636C35.5996 8.78937 35.636 9.40881 35.1623 10.0647C34.5793 10.6113 33.9598 10.6477 33.304 10.174C31.2634 8.35211 28.9314 6.93103 26.3079 5.91076C23.7208 4.8905 20.9515 4.38037 18 4.38037C15.085 4.38037 12.3339 4.8905 9.74679 5.91076L16.8522 11.4311C17.2166 11.3947 17.5992 11.3765 18 11.3765C20.1134 11.3765 22.0993 11.7591 23.9576 12.5243C25.816 13.253 27.4739 14.2915 28.9314 15.6397C29.478 16.2227 29.5144 16.8422 29.0407 17.498C28.4213 18.0446 27.8018 18.0628 27.1824 17.5527C25.2876 15.8037 23.0284 14.6923 20.4049 14.2186L34.9983 25.6419C35.5813 26.1885 35.6542 26.808 35.217 27.5003C34.6704 28.0833 34.0509 28.1562 33.3586 27.7189L1.00167 2.35806C0.418666 1.81149 0.34579 1.19204 0.783046 0.499721C1.32962 -0.0832869 1.94906 -0.156163 2.64138 0.281093ZM4.71835 8.58896C4.02603 9.06265 3.35193 9.591 2.69604 10.174C2.04016 10.6477 1.42071 10.6113 0.837703 10.0647C0.364009 9.40881 0.400447 8.78937 0.947017 8.20636C1.45715 7.73266 2.00372 7.29541 2.58673 6.89459L4.71835 8.58896ZM12.8622 14.9838C11.3683 15.6033 10.0201 16.4596 8.81762 17.5527C8.19818 18.0264 7.57873 18.0082 6.95929 17.498C6.48559 16.8422 6.52203 16.2227 7.0686 15.6397C8.1253 14.6559 9.29132 13.836 10.5666 13.1801L12.8622 14.9838ZM21.0608 23.1824C21.0244 24.3484 20.5142 25.2229 19.5304 25.8059C18.5101 26.3889 17.4899 26.3889 16.4696 25.8059C15.4858 25.2229 14.9756 24.3484 14.9392 23.1824C14.9756 22.0164 15.4858 21.1418 16.4696 20.5588C17.4899 19.9758 18.5101 19.9758 19.5304 20.5588C20.5142 21.1418 21.0244 22.0164 21.0608 23.1824Z" fill="white"/>
</svg>
