<svg width="28" height="30" viewBox="0 0 28 30" fill="none" xmlns="http://www.w3.org/2000/svg">
<path d="M3.89018 7.95637C3.55871 8.14052 3.39297 8.37992 3.39297 8.67456C3.39297 10.4056 3.68762 12.3944 4.2769 14.6411C4.86619 16.8509 5.89744 19.0239 7.37065 21.1601C8.8807 23.2594 10.98 24.9904 13.6686 26.3531C13.8896 26.4268 14.1106 26.4268 14.3316 26.3531C17.0202 24.9904 19.1195 23.2594 20.6296 21.1601C22.1028 19.0239 23.134 16.8509 23.7233 14.6411C24.3126 12.3944 24.6073 10.4056 24.6073 8.67456C24.6073 8.37992 24.4415 8.14052 24.1101 7.95637L14.0001 3.64722L3.89018 7.95637ZM25.1597 5.52557C25.7858 5.78338 26.283 6.18851 26.6513 6.74097C27.0565 7.29342 27.259 7.93795 27.259 8.67456C27.2959 10.5529 26.9828 12.7627 26.3199 15.304C25.6569 17.8453 24.4599 20.313 22.7289 22.7069C21.0347 25.1377 18.6039 27.145 15.4365 28.7287C14.4789 29.1707 13.5213 29.1707 12.5637 28.7287C9.39632 27.145 6.96552 25.1377 5.27132 22.7069C3.5403 20.313 2.34331 17.8453 1.68036 15.304C1.01742 12.7627 0.704359 10.5529 0.741189 8.67456C0.741189 7.93795 0.943756 7.29342 1.34889 6.74097C1.71719 6.18851 2.2144 5.78338 2.84052 5.52557L13.2819 1.10592C13.5029 0.995431 13.7423 0.940186 14.0001 0.940186C14.2579 0.940186 14.4973 0.995431 14.7183 1.10592L25.1597 5.52557ZM17.0939 12.4313C17.0202 13.7203 16.4309 14.6595 15.326 15.2488V19.0607C15.2523 19.871 14.8104 20.313 14.0001 20.3866C13.1898 20.313 12.7479 19.871 12.6742 19.0607V15.2488C11.5693 14.6595 10.98 13.7203 10.9064 12.4313C10.9432 11.5473 11.2378 10.8107 11.7903 10.2214C12.3796 9.66898 13.1162 9.37434 14.0001 9.33751C14.884 9.37434 15.6207 9.66898 16.2099 10.2214C16.7624 10.8107 17.057 11.5473 17.0939 12.4313Z" fill="white"/>
</svg>
