<svg width="30" height="28" viewBox="0 0 30 28" fill="none" xmlns="http://www.w3.org/2000/svg">
<path d="M0.857178 22.8392C0.930838 22.0289 1.3728 21.5869 2.18307 21.5133H5.4978C5.79245 20.5925 6.30807 19.8559 7.04468 19.3035C7.81812 18.7142 8.70204 18.4195 9.69646 18.4195C10.6909 18.4195 11.5748 18.7142 12.3482 19.3035C13.0849 19.8559 13.6005 20.5925 13.8951 21.5133H27.817C28.6273 21.5869 29.0692 22.0289 29.1429 22.8392C29.0692 23.6494 28.6273 24.0914 27.817 24.1651H13.8951C13.6005 25.0858 13.0849 25.8224 12.3482 26.3749C11.5748 26.9642 10.6909 27.2588 9.69646 27.2588C8.70204 27.2588 7.81812 26.9642 7.04468 26.3749C6.30807 25.8224 5.79245 25.0858 5.4978 24.1651H2.18307C1.3728 24.0914 0.930838 23.6494 0.857178 22.8392ZM11.4643 22.8392C11.4643 22.3236 11.2986 21.9 10.9671 21.5685C10.6356 21.2371 10.2121 21.0713 9.69646 21.0713C9.18084 21.0713 8.75729 21.2371 8.42582 21.5685C8.09434 21.9 7.92861 22.3236 7.92861 22.8392C7.92861 23.3548 8.09434 23.7784 8.42582 24.1098C8.75729 24.4413 9.18084 24.607 9.69646 24.607C10.2121 24.607 10.6356 24.4413 10.9671 24.1098C11.2986 23.7784 11.4643 23.3548 11.4643 22.8392ZM22.0715 13.9999C22.0715 13.4843 21.9057 13.0607 21.5743 12.7292C21.2428 12.3978 20.8192 12.232 20.3036 12.232C19.788 12.232 19.3644 12.3978 19.033 12.7292C18.7015 13.0607 18.5357 13.4843 18.5357 13.9999C18.5357 14.5155 18.7015 14.9391 19.033 15.2705C19.3644 15.602 19.788 15.7678 20.3036 15.7678C20.8192 15.7678 21.2428 15.602 21.5743 15.2705C21.9057 14.9391 22.0715 14.5155 22.0715 13.9999ZM20.3036 9.58025C21.298 9.58025 22.182 9.8749 22.9554 10.4642C23.692 11.0166 24.2076 11.7532 24.5023 12.674H27.817C28.6273 12.7477 29.0692 13.1896 29.1429 13.9999C29.0692 14.8102 28.6273 15.2521 27.817 15.3258H24.5023C24.2076 16.2465 23.692 16.9832 22.9554 17.5356C22.182 18.1249 21.298 18.4195 20.3036 18.4195C19.3092 18.4195 18.4253 18.1249 17.6518 17.5356C16.9152 16.9832 16.3996 16.2465 16.1049 15.3258H2.18307C1.3728 15.2521 0.930838 14.8102 0.857178 13.9999C0.930838 13.1896 1.3728 12.7477 2.18307 12.674H16.1049C16.3996 11.7532 16.9152 11.0166 17.6518 10.4642C18.4253 9.8749 19.3092 9.58025 20.3036 9.58025ZM11.4643 3.39275C10.9487 3.39275 10.5251 3.55849 10.1937 3.88996C9.8622 4.22144 9.69646 4.64498 9.69646 5.16061C9.69646 5.67623 9.8622 6.09978 10.1937 6.43126C10.5251 6.76273 10.9487 6.92847 11.4643 6.92847C11.9799 6.92847 12.4035 6.76273 12.735 6.43126C13.0664 6.09978 13.2322 5.67623 13.2322 5.16061C13.2322 4.64498 13.0664 4.22144 12.735 3.88996C12.4035 3.55849 11.9799 3.39275 11.4643 3.39275ZM15.663 3.83472H27.817C28.6273 3.90838 29.0692 4.35034 29.1429 5.16061C29.0692 5.97088 28.6273 6.41284 27.817 6.4865H15.663C15.3683 7.40726 14.8527 8.14387 14.1161 8.69632C13.3427 9.28561 12.4587 9.58025 11.4643 9.58025C10.4699 9.58025 9.58597 9.28561 8.81253 8.69632C8.07593 8.14387 7.5603 7.40726 7.26566 6.4865H2.18307C1.3728 6.41284 0.930838 5.97088 0.857178 5.16061C0.930838 4.35034 1.3728 3.90838 2.18307 3.83472H7.26566C7.5603 2.91396 8.07593 2.17735 8.81253 1.6249C9.58597 1.03561 10.4699 0.740967 11.4643 0.740967C12.4587 0.740967 13.3427 1.03561 14.1161 1.6249C14.8527 2.17735 15.3683 2.91396 15.663 3.83472Z" fill="white"/>
</svg>
