<svg width="30" height="26" viewBox="0 0 30 26" fill="none" xmlns="http://www.w3.org/2000/svg">
<path d="M4.39265 3.27679C3.84019 3.31362 3.54555 3.60826 3.50872 4.16071V7.69643C3.54555 8.24888 3.84019 8.54353 4.39265 8.58036H25.6069C26.1594 8.54353 26.454 8.24888 26.4909 7.69643V4.16071C26.454 3.60826 26.1594 3.31362 25.6069 3.27679H4.39265ZM0.856934 4.16071C0.893764 3.16629 1.24365 2.33761 1.9066 1.67467C2.56955 1.01172 3.39823 0.66183 4.39265 0.625H25.6069C26.6014 0.66183 27.43 1.01172 28.093 1.67467C28.7559 2.33761 29.1058 3.16629 29.1426 4.16071V7.69643C29.1058 8.69085 28.7559 9.51953 28.093 10.1825C27.43 10.8454 26.6014 11.1953 25.6069 11.2321H4.39265C3.39823 11.1953 2.56955 10.8454 1.9066 10.1825C1.24365 9.51953 0.893764 8.69085 0.856934 7.69643V4.16071ZM4.39265 17.4196C3.84019 17.4565 3.54555 17.7511 3.50872 18.3036V21.8393C3.54555 22.3917 3.84019 22.6864 4.39265 22.7232H25.6069C26.1594 22.6864 26.454 22.3917 26.4909 21.8393V18.3036C26.454 17.7511 26.1594 17.4565 25.6069 17.4196H4.39265ZM0.856934 18.3036C0.893764 17.3092 1.24365 16.4805 1.9066 15.8175C2.56955 15.1546 3.39823 14.8047 4.39265 14.7679H25.6069C26.6014 14.8047 27.43 15.1546 28.093 15.8175C28.7559 16.4805 29.1058 17.3092 29.1426 18.3036V21.8393C29.1058 22.8337 28.7559 23.6624 28.093 24.3253C27.43 24.9883 26.6014 25.3382 25.6069 25.375H4.39265C3.39823 25.3382 2.56955 24.9883 1.9066 24.3253C1.24365 23.6624 0.893764 22.8337 0.856934 21.8393V18.3036ZM22.5132 20.0714C22.5868 19.2612 23.0288 18.8192 23.8391 18.7455C24.6493 18.8192 25.0913 19.2612 25.165 20.0714C25.0913 20.8817 24.6493 21.3237 23.8391 21.3973C23.0288 21.3237 22.5868 20.8817 22.5132 20.0714ZM23.8391 4.60268C24.6493 4.67634 25.0913 5.1183 25.165 5.92857C25.0913 6.73884 24.6493 7.1808 23.8391 7.25446C23.0288 7.1808 22.5868 6.73884 22.5132 5.92857C22.5868 5.1183 23.0288 4.67634 23.8391 4.60268ZM18.9775 20.0714C19.0511 19.2612 19.4931 18.8192 20.3034 18.7455C21.1136 18.8192 21.5556 19.2612 21.6293 20.0714C21.5556 20.8817 21.1136 21.3237 20.3034 21.3973C19.4931 21.3237 19.0511 20.8817 18.9775 20.0714ZM20.3034 4.60268C21.1136 4.67634 21.5556 5.1183 21.6293 5.92857C21.5556 6.73884 21.1136 7.1808 20.3034 7.25446C19.4931 7.1808 19.0511 6.73884 18.9775 5.92857C19.0511 5.1183 19.4931 4.67634 20.3034 4.60268Z" fill="white"/>
</svg>
