<svg width="20.000000" height="20.000000" viewBox="0 0 20 20" fill="none" xmlns="http://www.w3.org/2000/svg" xmlns:xlink="http://www.w3.org/1999/xlink">
	<desc>
			Created with Pixso.
	</desc>
	<defs>
		<clipPath id="clip75_885">
			<rect id="magnifying-glass-binary_17698343 1" rx="0.000000" width="19.166666" height="19.166666" transform="translate(0.416667 0.416667)" fill="white" fill-opacity="0"/>
		</clipPath>
	</defs>
	<rect id="magnifying-glass-binary_17698343 1" rx="0.000000" width="19.166666" height="19.166666" transform="translate(0.416667 0.416667)" fill="#FFFFFF" fill-opacity="0"/>
	<g clip-path="url(#clip75_885)">
		<path id="Vector" d="M6.68 3.33C6.68 1.49 5.19 0 3.35 0C1.51 0 0.02 1.49 0.02 3.33L0.02 5.83C0.02 7.67 1.51 9.16 3.35 9.16C5.19 9.16 6.68 7.67 6.68 5.83L6.68 3.33ZM5.02 5.83C5.02 6.75 4.27 7.5 3.35 7.5C2.43 7.5 1.68 6.75 1.68 5.83L1.68 3.33C1.68 2.41 2.43 1.66 3.35 1.66C4.27 1.66 5.02 2.41 5.02 3.33L5.02 5.83ZM4.18 10.83L4.18 20L2.52 20L2.52 13.64L1.2 14.99L0 13.83L2.93 10.83L4.18 10.83ZM9.51 4.16L8.32 3L11.24 0L12.5 0L12.5 9.16L10.83 9.16L10.83 2.8L9.51 4.16ZM19.96 18.78L17.63 16.46C18.07 15.8 18.33 15.01 18.33 14.16C18.33 11.86 16.46 10 14.16 10C11.86 10 10 11.86 10 14.16C10 16.46 11.86 18.33 14.16 18.33C15.01 18.33 15.8 18.07 16.46 17.63L18.78 19.96L19.96 18.78ZM14.16 16.66C12.78 16.66 11.66 15.54 11.66 14.16C11.66 12.78 12.78 11.66 14.16 11.66C15.54 11.66 16.66 12.78 16.66 14.16C16.66 15.54 15.54 16.66 14.16 16.66ZM10.07 18.32C10.56 18.8 11.13 19.19 11.76 19.48C11.25 19.8 10.65 19.99 10 19.99C8.16 19.99 6.66 18.5 6.66 16.66L6.66 14.16C6.66 12.55 7.81 11.21 9.33 10.9C8.7 11.83 8.33 12.95 8.33 14.16L8.33 16.66C8.33 17.58 9.08 18.33 10 18.33C10.02 18.33 10.05 18.32 10.07 18.32Z" fill="#FFFFFF" fill-opacity="1.000000" fill-rule="nonzero"/>
	</g>
</svg>
