<svg width="20.000000" height="20.000000" viewBox="0 0 20 20" fill="none" xmlns="http://www.w3.org/2000/svg" xmlns:xlink="http://www.w3.org/1999/xlink">
	<desc>
			Created with Pixso.
	</desc>
	<defs>
		<clipPath id="clip75_879">
			<rect id="padlock-check_14897075 1" rx="0.000000" width="19.166666" height="19.166666" transform="translate(0.416667 0.416667)" fill="white" fill-opacity="0"/>
		</clipPath>
	</defs>
	<rect id="padlock-check_14897075 1" rx="0.000000" width="19.166666" height="19.166666" transform="translate(0.416667 0.416667)" fill="#FFFFFF" fill-opacity="0"/>
	<g clip-path="url(#clip75_879)">
		<path id="Vector" d="M7.93 18.33L2.5 18.33C2.04 18.33 1.66 17.95 1.66 17.5L1.66 8.33L9.45 8.33C10.74 7.29 12.38 6.66 14.16 6.66L14.16 5.83C14.16 2.61 11.55 0 8.33 0C5.11 0 2.5 2.61 2.5 5.83L2.5 6.66L0 6.66L0 17.5C0 18.87 1.12 20 2.5 20L9.45 20C8.86 19.52 8.35 18.96 7.93 18.33ZM4.16 5.83C4.16 3.53 6.03 1.66 8.33 1.66C10.63 1.66 12.5 3.53 12.5 5.83L12.5 6.66L4.16 6.66L4.16 5.83ZM17.49 13.43L14.61 16.26C14.35 16.52 14 16.66 13.63 16.66C13.26 16.66 12.91 16.52 12.65 16.25L11.11 14.76L12.27 13.57L13.63 14.88L16.32 12.24L17.49 13.43ZM14.16 8.33C11.84 8.33 9.84 9.69 8.9 11.66L7.5 11.66L7.5 15L8.4 15C8.8 17.82 11.23 20 14.16 20C17.38 20 20 17.38 20 14.16C20 10.95 17.38 8.33 14.16 8.33ZM14.16 18.33C11.86 18.33 10 16.46 10 14.16C10 11.86 11.86 10 14.16 10C16.46 10 18.33 11.86 18.33 14.16C18.33 16.46 16.46 18.33 14.16 18.33Z" fill="#FFFFFF" fill-opacity="1.000000" fill-rule="nonzero"/>
	</g>
</svg>
