<svg width="380.000000" height="115.255249" viewBox="0 0 380 115.255" fill="none" xmlns="http://www.w3.org/2000/svg" xmlns:xlink="http://www.w3.org/1999/xlink">
	<desc>
			Created with Pixso.
	</desc>
	<defs/>
	<path id="***" d="M40.24 115.25L12.28 95.04L36.69 66.43L0 56.57L10.66 23.76L45.74 38.14L43.31 0L77.9 0L75.48 38.14L110.39 23.76L121.06 56.57L84.53 66.43L108.78 95.04L80.81 115.25L60.61 83.57L40.24 115.25ZM169.71 115.25L141.75 95.04L166.15 66.43L129.46 56.57L140.13 23.76L175.21 38.14L172.78 0L207.37 0L204.95 38.14L239.86 23.76L250.53 56.57L214 66.43L238.24 95.04L210.28 115.25L190.08 83.57L169.71 115.25ZM271.22 95.04L299.18 115.25L319.54 83.57L339.75 115.25L367.71 95.04L343.47 66.43L380 56.57L369.33 23.76L334.41 38.14L336.84 0L302.25 0L304.67 38.14L269.6 23.76L258.93 56.57L295.62 66.43L271.22 95.04Z" fill="#3C0F3C" fill-opacity="1.000000" fill-rule="evenodd"/>
</svg>
