<svg width="28.000000" height="28.000000" viewBox="0 0 28 28" fill="none" xmlns="http://www.w3.org/2000/svg" xmlns:xlink="http://www.w3.org/1999/xlink">
	<desc>
			Created with Pixso.
	</desc>
	<defs/>
	<path id="Vector" d="M28 0L28 5.83L22.16 5.83L22.16 3.5L24.08 3.5C23.24 2.76 22.16 2.33 21 2.33C18.83 2.33 17.02 3.82 16.49 5.83L14.1 5.83C14.66 2.52 17.53 0 21 0C22.77 0 24.4 0.65 25.66 1.78L25.66 0L28 0ZM21 11.66C19.84 11.66 18.74 11.23 17.91 10.5L19.83 10.5L19.83 8.16L14 8.16L14 14L16.33 14L16.33 12.21C17.59 13.34 19.24 14 21 14C24.46 14 27.33 11.47 27.89 8.16L25.5 8.16C24.97 10.17 23.16 11.66 21 11.66ZM17.5 15.64C18.23 15.94 19.01 16.15 19.83 16.25L19.83 23.08C19.83 26.31 14.84 28 9.91 28C4.98 28 0 26.31 0 23.08L0 5.25C0 5.02 0.14 4.33 0.14 4.33C0.92 1.8 4.85 0 9.91 0C11.51 0 12.99 0.18 14.29 0.51C13.7 1.12 13.19 1.81 12.78 2.57C11.91 2.42 10.96 2.33 9.91 2.33C5.28 2.33 2.33 4.06 2.33 5.25C2.33 6.43 5.28 8.16 9.91 8.16C10.53 8.16 11.11 8.13 11.66 8.07L11.66 10.41C11.09 10.46 10.52 10.5 9.91 10.5C6.8 10.5 4.12 9.81 2.33 8.7L2.33 11.08C2.33 12.27 5.28 14 9.91 14C10.53 14 11.11 13.96 11.66 13.91L11.66 16.25C11.09 16.3 10.51 16.33 9.91 16.33C6.8 16.33 4.12 15.64 2.33 14.53L2.33 16.91C2.33 18.1 5.28 19.83 9.91 19.83C14.54 19.83 17.5 18.1 17.5 16.91L17.5 15.64ZM17.5 23.08L17.5 20.36C15.7 21.48 13.02 22.16 9.91 22.16C6.8 22.16 4.12 21.48 2.33 20.36L2.33 23.08C2.33 23.95 5 25.66 9.91 25.66C14.82 25.66 17.5 23.95 17.5 23.08Z" fill="#FFFFFF" fill-opacity="1.000000" fill-rule="evenodd"/>
</svg>
