<svg width="23.333374" height="28.012817" viewBox="0 0 23.3334 28.0128" fill="none" xmlns="http://www.w3.org/2000/svg" xmlns:xlink="http://www.w3.org/1999/xlink">
	<desc>
			Created with Pixso.
	</desc>
	<defs/>
	<path id="Vector" d="M20.13 2.8L11.66 0L3.19 2.8C1.28 3.44 0 5.22 0 7.23L0 13.95C0 21.61 8.17 26.29 10.67 27.54L11.61 28.01L12.59 27.62C15.11 26.6 23.33 22.62 23.33 13.95L23.33 7.23C23.33 5.22 22.04 3.44 20.13 2.8ZM21 13.95C21 21.15 13.89 24.57 11.72 25.45C9.52 24.35 2.33 20.27 2.33 13.95L2.33 7.23C2.33 6.23 2.97 5.33 3.93 5.02L11.66 2.45L19.4 5.02C20.35 5.33 21 6.23 21 7.23L21 13.95ZM14.58 11.07C14.58 12.27 13.86 13.3 12.83 13.75L12.83 18.66L10.5 18.66L10.5 13.75C9.46 13.3 8.75 12.27 8.75 11.07C8.75 9.46 10.05 8.16 11.66 8.16C13.27 8.16 14.58 9.46 14.58 11.07Z" fill="#FFFFFF" fill-opacity="1.000000" fill-rule="nonzero"/>
</svg>
