<svg width="24.000000" height="6.749390" viewBox="0 0 24 6.74939" fill="none" xmlns="http://www.w3.org/2000/svg" xmlns:xlink="http://www.w3.org/1999/xlink">
	<desc>
			Created with Pixso.
	</desc>
	<defs/>
	<path id="***" d="M2.26 6.74L0.78 5.68L2.26 3.87L0 3.24L0.56 1.5L2.74 2.35L2.63 0L4.45 0L4.34 2.35L6.53 1.5L7.09 3.24L4.82 3.87L6.3 5.68L4.82 6.74L3.54 4.8L2.26 6.74ZM10.71 6.74L9.23 5.68L10.71 3.87L8.45 3.24L9.01 1.5L11.19 2.35L11.08 0L12.9 0L12.79 2.35L14.98 1.5L15.54 3.24L13.27 3.87L14.75 5.68L13.27 6.74L11.99 4.8L10.71 6.74ZM17.68 5.68L19.16 6.74L20.44 4.8L21.72 6.74L23.2 5.68L21.72 3.87L24 3.24L23.43 1.5L21.24 2.35L21.35 0L19.53 0L19.64 2.35L17.46 1.5L16.9 3.24L19.16 3.87L17.68 5.68Z" fill="#3C0F3C" fill-opacity="1.000000" fill-rule="evenodd"/>
</svg>
