<svg width="20.000000" height="15.000000" viewBox="0 0 20 15" fill="none" xmlns="http://www.w3.org/2000/svg" xmlns:xlink="http://www.w3.org/1999/xlink">
	<desc>
			Created with Pixso.
	</desc>
	<defs/>
	<path id="Vector" d="M2.5 1.87C2.1 1.9 1.9 2.1 1.87 2.5L1.87 3.35L8.63 8.9C9.04 9.21 9.5 9.37 10 9.37C10.52 9.37 10.98 9.21 11.4 8.9L18.12 3.35L18.12 2.5C18.09 2.1 17.89 1.9 17.5 1.87L2.5 1.87ZM1.87 5.78L1.87 12.5C1.9 12.89 2.1 13.09 2.5 13.12L17.5 13.12C17.89 13.09 18.09 12.89 18.12 12.5L18.12 5.78L12.57 10.35C11.79 10.95 10.93 11.25 10 11.25C9.06 11.25 8.2 10.95 7.42 10.35L1.87 5.78ZM0 2.5C0.02 1.79 0.27 1.21 0.74 0.74C1.21 0.27 1.79 0.02 2.5 0L17.5 0C18.2 0.02 18.78 0.27 19.25 0.74C19.72 1.21 19.97 1.79 20 2.5L20 12.5C19.97 13.2 19.72 13.78 19.25 14.25C18.78 14.72 18.2 14.97 17.5 15L2.5 15C1.79 14.97 1.21 14.72 0.74 14.25C0.27 13.78 0.02 13.2 0 12.5L0 2.5Z" fill="#3C0F3C" fill-opacity="1.000000" fill-rule="evenodd"/>
</svg>
