<svg width="20.000000" height="20.000000" viewBox="0 0 20 20" fill="none" xmlns="http://www.w3.org/2000/svg" xmlns:xlink="http://www.w3.org/1999/xlink">
	<desc>
			Created with Pixso.
	</desc>
	<defs/>
	<path id="Vector" d="M20 13.33L20 20L13.33 20C10.87 20 8.72 18.65 7.56 16.66C8.2 16.65 8.83 16.58 9.43 16.45C10.35 17.59 11.75 18.33 13.33 18.33L18.33 18.33L18.33 13.33C18.33 11.75 17.59 10.35 16.45 9.43C16.58 8.83 16.65 8.2 16.66 7.56C18.65 8.72 20 10.87 20 13.33ZM10.05 14.54C9.25 14.83 8.39 15 7.5 15L0 15L0 7.5C0 3.36 3.36 0 7.5 0C11.63 0 15 3.36 15 7.5C15 10.11 13.65 12.4 11.63 13.75L12.9 14.99L16.08 11.9L17.24 13.09L14.08 16.18C13.76 16.5 13.34 16.66 12.91 16.66C12.49 16.66 12.06 16.5 11.73 16.17L10.05 14.54ZM7.5 13.33C10.71 13.33 13.33 10.71 13.33 7.5C13.33 4.28 10.71 1.66 7.5 1.66C4.28 1.66 1.66 4.28 1.66 7.5L1.66 13.33L7.5 13.33ZM7.94 3.37C7.2 3.23 6.46 3.44 5.89 3.91C5.32 4.39 5 5.09 5 5.83L6.66 5.83C6.66 5.58 6.77 5.35 6.96 5.19C7.15 5.03 7.4 4.96 7.65 5.01C7.98 5.07 8.26 5.34 8.31 5.67C8.39 6.11 8.14 6.42 7.9 6.56C7.19 6.95 6.66 7.89 6.66 8.75L6.66 9.16L8.33 9.16L8.33 8.75C8.33 8.49 8.55 8.1 8.7 8.02C9.64 7.5 10.14 6.44 9.96 5.38C9.78 4.37 8.95 3.54 7.94 3.37ZM6.66 11.66L8.33 11.66L8.33 10L6.66 10L6.66 11.66Z" fill="#3C0F3C" fill-opacity="1.000000" fill-rule="evenodd"/>
</svg>
