<svg width="48" height="48" viewBox="0 0 48 48" fill="none" xmlns="http://www.w3.org/2000/svg">
<path d="M23.0903 10.6406L4.87939 17.25L10.0825 19.1484C10.7856 18.6328 11.5591 18.2344 12.4028 17.9531L23.5825 13.7344C24.2856 13.5469 24.7778 13.7578 25.0591 14.3672C25.2466 15.0234 25.0356 15.5156 24.4263 15.8438L13.1763 20.0625C13.0825 20.0625 12.9888 20.0859 12.895 20.1328L23.0903 23.8594C23.3716 23.9531 23.6763 24 24.0044 24C24.3325 24 24.6372 23.9531 24.9185 23.8594L43.1294 17.25L24.9185 10.6406C24.6372 10.5469 24.3325 10.5 24.0044 10.5C23.6763 10.5 23.3716 10.5469 23.0903 10.6406ZM22.3169 25.9688L10.4341 21.6797C8.41846 23.4141 7.31689 25.6172 7.12939 28.2891C7.55127 29.2266 7.87939 30.1875 8.11377 31.1719C8.67627 33.1875 8.72314 35.7422 8.25439 38.8359C8.16064 39.1641 7.99658 39.3984 7.76221 39.5391C7.48096 39.7266 7.17627 39.7734 6.84814 39.6797L2.34814 38.5547C1.97314 38.4609 1.71533 38.2266 1.57471 37.8516C1.43408 37.4766 1.48096 37.125 1.71533 36.7969C2.32471 36 2.86377 35.1328 3.33252 34.1953C4.22314 32.4609 4.73877 30.5625 4.87939 28.5C4.87939 28.4531 4.87939 28.4062 4.87939 28.3594C5.02002 25.4062 6.07471 22.8984 8.04346 20.8359L2.62939 18.8672C1.92627 18.5391 1.55127 18 1.50439 17.25C1.55127 16.5 1.92627 15.9609 2.62939 15.6328L22.3169 8.53125C22.8794 8.34375 23.4419 8.25 24.0044 8.25C24.5669 8.25 25.1294 8.34375 25.6919 8.53125L45.3794 15.6328C46.0825 15.9609 46.4575 16.5 46.5044 17.25C46.4575 18 46.0825 18.5391 45.3794 18.8672L25.6919 25.9688C25.1294 26.1562 24.5669 26.25 24.0044 26.25C23.4419 26.25 22.8794 26.1562 22.3169 25.9688ZM13.7388 25.2656L12.7544 34.5469C12.7544 34.5469 12.7778 34.5469 12.8247 34.5469C12.8716 34.6406 12.9419 34.7344 13.0356 34.8281C13.4575 35.2031 14.2075 35.625 15.2856 36.0938C17.5356 36.9844 20.4419 37.4531 24.0044 37.5C27.5669 37.4531 30.4731 36.9609 32.7231 36.0234C33.8013 35.6016 34.5513 35.2031 34.9731 34.8281C35.1138 34.7344 35.2075 34.6406 35.2544 34.5469L34.27 25.2656L36.4497 24.4922L37.5044 34.6875C37.4106 36 36.0981 37.1484 33.5669 38.1328C31.0356 39.1641 27.8481 39.7031 24.0044 39.75C20.1606 39.7031 16.9731 39.1641 14.4419 38.1328C11.9106 37.1484 10.5981 36 10.5044 34.6875L11.5591 24.4922L13.7388 25.2656ZM35.3247 34.4766C35.2778 34.4766 35.2544 34.4766 35.2544 34.4766C35.3013 34.4766 35.3247 34.4766 35.3247 34.4766ZM6.21533 37.2188C6.35596 35.7656 6.35596 34.4531 6.21533 33.2812C5.93408 33.9844 5.62939 34.6172 5.30127 35.1797C5.06689 35.7422 4.78564 36.2812 4.45752 36.7969L6.21533 37.2188Z" fill="#408077"/>
</svg>
