<svg width="48" height="48" viewBox="0 0 48 48" fill="none" xmlns="http://www.w3.org/2000/svg">
<path d="M16.6875 23.9297C16.5938 25.0078 16.0312 25.5703 15 25.6172C13.9688 25.5703 13.4062 25.0078 13.3125 23.9297C13.3125 23.4609 13.4766 23.0625 13.8047 22.7344C14.1328 22.4062 14.5312 22.2422 15 22.2422C15.4688 22.2422 15.8672 22.4062 16.1953 22.7344C16.5234 23.0625 16.6875 23.4609 16.6875 23.9297ZM15.5625 17.1797C15.5625 16.7109 15.7266 16.3125 16.0547 15.9844C16.3828 15.6562 16.7812 15.4922 17.25 15.4922C17.7188 15.4922 18.1172 15.6562 18.4453 15.9844C18.7734 16.3125 18.9375 16.7109 18.9375 17.1797C18.8438 18.2578 18.2812 18.8203 17.25 18.8672C16.2188 18.8203 15.6562 18.2578 15.5625 17.1797ZM25.6875 14.9297C25.5938 16.0078 25.0312 16.5703 24 16.6172C22.9688 16.5703 22.4062 16.0078 22.3125 14.9297C22.3125 14.4609 22.4766 14.0625 22.8047 13.7344C23.1328 13.4062 23.5312 13.2422 24 13.2422C24.4688 13.2422 24.8672 13.4062 25.1953 13.7344C25.5234 14.0625 25.6875 14.4609 25.6875 14.9297ZM29.0625 17.1797C29.0625 16.7109 29.2266 16.3125 29.5547 15.9844C29.8828 15.6562 30.2812 15.4922 30.75 15.4922C31.2188 15.4922 31.6172 15.6562 31.9453 15.9844C32.2734 16.3125 32.4375 16.7109 32.4375 17.1797C32.3438 18.2578 31.7812 18.8203 30.75 18.8672C29.7188 18.8203 29.1562 18.2578 29.0625 17.1797ZM37.0781 28.4297H30.1875C29.25 28.4766 28.4531 28.8281 27.7969 29.4844C27.1875 30.1406 26.8594 30.9375 26.8125 31.875C26.8125 32.1094 26.8359 32.3438 26.8828 32.5781C27.0234 33.1406 27.2109 33.7031 27.4453 34.2656C27.5391 34.4062 27.6094 34.5469 27.6562 34.6875C27.6562 34.6875 27.6562 34.7109 27.6562 34.7578C28.1719 35.6953 28.4531 36.6562 28.5 37.6406C28.5 38.7656 28.1484 39.75 27.4453 40.5938C26.7891 41.4375 25.8984 41.9062 24.7734 42C24.4922 42 24.2344 42 24 42C20.625 41.9531 17.6016 41.1328 14.9297 39.5391C12.2109 37.9453 10.0547 35.7891 8.46094 33.0703C6.86719 30.3984 6.04688 27.375 6 24C6.04688 20.625 6.86719 17.6016 8.46094 14.9297C10.0547 12.2109 12.2109 10.0547 14.9297 8.46094C17.6016 6.86719 20.625 6.04688 24 6C27.375 6.04688 30.3984 6.86719 33.0703 8.46094C35.7891 10.0547 37.9453 12.2109 39.5391 14.9297C41.1328 17.6016 41.9531 20.625 42 24C42 24.0469 42 24.0703 42 24.0703C41.9531 24.1172 41.9297 24.1641 41.9297 24.2109C41.9297 25.4766 41.4375 26.5078 40.4531 27.3047C39.5156 28.1016 38.3906 28.5 37.0781 28.5V28.4297ZM39.6797 24.1406C39.6797 24.1406 39.6797 24.1172 39.6797 24.0703C39.7266 24.0703 39.75 24.0234 39.75 23.9297C39.7031 21.0234 38.9766 18.375 37.5703 15.9844C36.2109 13.6406 34.3359 11.7656 31.9453 10.3594C29.6016 8.95312 26.9531 8.22656 24 8.17969C21.0469 8.22656 18.3984 8.95312 16.0547 10.3594C13.6641 11.7656 11.7891 13.6406 10.4297 15.9844C9.02344 18.375 8.29688 21.0234 8.25 23.9297C8.29688 26.8828 9.02344 29.5547 10.4297 31.9453C11.7891 34.2891 13.6641 36.1641 16.0547 37.5703C18.3984 38.9766 21.0469 39.7031 24 39.75C24.2344 39.75 24.4453 39.75 24.6328 39.75C25.0547 39.7031 25.4297 39.5156 25.7578 39.1875C26.0859 38.8125 26.25 38.2969 26.25 37.6406C26.25 37.3125 26.0859 36.75 25.7578 35.9531C25.7109 35.8594 25.6406 35.7656 25.5469 35.6719C25.5 35.4844 25.4297 35.2969 25.3359 35.1094C25.1016 34.5 24.8906 33.8203 24.7031 33.0703C24.6094 32.6484 24.5625 32.25 24.5625 31.875C24.6094 30.2812 25.1484 28.9453 26.1797 27.8672C27.2578 26.8359 28.5938 26.2969 30.1875 26.25H37.0781C37.9219 26.2031 38.5781 25.9688 39.0469 25.5469C39.5156 25.125 39.7266 24.6562 39.6797 24.1406Z" fill="#408077"/>
</svg>
