<svg width="36" height="32" viewBox="0 0 36 32" fill="none" xmlns="http://www.w3.org/2000/svg">
<path d="M31.5 0.25C32.7656 0.296875 33.8203 0.742188 34.6641 1.58594C35.5078 2.42969 35.9531 3.48438 36 4.75V9.25C35.9531 10.5156 35.5078 11.5703 34.6641 12.4141C33.8203 13.2578 32.7656 13.7031 31.5 13.75H4.5C3.23438 13.7031 2.17969 13.2578 1.33594 12.4141C0.492188 11.5703 0.046875 10.5156 0 9.25V4.75C0.046875 3.48438 0.492188 2.42969 1.33594 1.58594C2.17969 0.742188 3.23438 0.296875 4.5 0.25H31.5ZM33.75 9.25V4.75C33.75 4.09375 33.5391 3.55469 33.1172 3.13281C32.6953 2.71094 32.1562 2.5 31.5 2.5H4.5C3.84375 2.5 3.30469 2.71094 2.88281 3.13281C2.46094 3.55469 2.25 4.09375 2.25 4.75V9.25C2.25 9.90625 2.46094 10.4453 2.88281 10.8672C3.30469 11.2891 3.84375 11.5 4.5 11.5H31.5C32.1562 11.5 32.6953 11.2891 33.1172 10.8672C33.5391 10.4453 33.75 9.90625 33.75 9.25ZM29.25 5.3125C30.2812 5.40625 30.8438 5.96875 30.9375 7C30.8438 8.03125 30.2812 8.59375 29.25 8.6875C28.2188 8.59375 27.6562 8.03125 27.5625 7C27.6562 5.96875 28.2188 5.40625 29.25 5.3125ZM22.5 5.3125C23.5312 5.40625 24.0938 5.96875 24.1875 7C24.0938 8.03125 23.5312 8.59375 22.5 8.6875C21.4688 8.59375 20.9062 8.03125 20.8125 7C20.9062 5.96875 21.4688 5.40625 22.5 5.3125ZM31.5 18.25C32.7656 18.2969 33.8203 18.7422 34.6641 19.5859C35.5078 20.4297 35.9531 21.4844 36 22.75V27.25C35.9531 28.5156 35.5078 29.5703 34.6641 30.4141C33.8203 31.2578 32.7656 31.7031 31.5 31.75H4.5C3.23438 31.7031 2.17969 31.2578 1.33594 30.4141C0.492188 29.5703 0.046875 28.5156 0 27.25V22.75C0.046875 21.4844 0.492188 20.4297 1.33594 19.5859C2.17969 18.7422 3.23438 18.2969 4.5 18.25H31.5ZM33.75 27.25V22.75C33.75 22.0938 33.5391 21.5547 33.1172 21.1328C32.6953 20.7109 32.1562 20.5 31.5 20.5H4.5C3.84375 20.5 3.30469 20.7109 2.88281 21.1328C2.46094 21.5547 2.25 22.0938 2.25 22.75V27.25C2.25 27.9062 2.46094 28.4453 2.88281 28.8672C3.30469 29.2891 3.84375 29.5 4.5 29.5H31.5C32.1562 29.5 32.6953 29.2891 33.1172 28.8672C33.5391 28.4453 33.75 27.9062 33.75 27.25ZM29.25 23.3125C30.2812 23.4062 30.8438 23.9688 30.9375 25C30.8438 26.0312 30.2812 26.5938 29.25 26.6875C28.2188 26.5938 27.6562 26.0312 27.5625 25C27.6562 23.9688 28.2188 23.4062 29.25 23.3125ZM22.5 23.3125C23.5312 23.4062 24.0938 23.9688 24.1875 25C24.0938 26.0312 23.5312 26.5938 22.5 26.6875C21.4688 26.5938 20.9062 26.0312 20.8125 25C20.9062 23.9688 21.4688 23.4062 22.5 23.3125Z" fill="#408077"/>
</svg>
