<svg width="48" height="48" viewBox="0 0 48 48" fill="none" xmlns="http://www.w3.org/2000/svg">
<path d="M45.375 8.25C46.0781 8.29688 46.4531 8.67188 46.5 9.375C46.4531 10.0781 46.0781 10.4531 45.375 10.5H2.625C1.92188 10.4531 1.54688 10.0781 1.5 9.375C1.54688 8.67188 1.92188 8.29688 2.625 8.25H45.375ZM45.375 37.5C46.0781 37.5469 46.4531 37.9219 46.5 38.625C46.4531 39.3281 46.0781 39.7031 45.375 39.75H2.625C1.92188 39.7031 1.54688 39.3281 1.5 38.625C1.54688 37.9219 1.92188 37.5469 2.625 37.5H45.375ZM17.6016 17.6016C18.1172 17.1328 18.6328 17.1328 19.1484 17.6016L24 22.3828L28.8516 17.6016C29.3672 17.1328 29.8828 17.1328 30.3984 17.6016C30.8672 18.1172 30.8672 18.6328 30.3984 19.1484L25.6172 24L30.3984 28.8516C30.8672 29.3672 30.8672 29.8828 30.3984 30.3984C29.8828 30.8672 29.3672 30.8672 28.8516 30.3984L24 25.6172L19.1484 30.3984C18.6328 30.8672 18.1172 30.8672 17.6016 30.3984C17.1328 29.8828 17.1328 29.3672 17.6016 28.8516L22.3828 24L17.6016 19.1484C17.1328 18.6328 17.1328 18.1172 17.6016 17.6016ZM9.86719 24L14.6484 28.8516C15.1172 29.3672 15.1172 29.8828 14.6484 30.3984C14.1328 30.8672 13.6172 30.8672 13.1016 30.3984L8.25 25.6172L3.39844 30.3984C2.88281 30.8672 2.36719 30.8672 1.85156 30.3984C1.38281 29.8828 1.38281 29.3672 1.85156 28.8516L6.63281 24L1.85156 19.1484C1.38281 18.6328 1.38281 18.1172 1.85156 17.6016C2.36719 17.1328 2.88281 17.1328 3.39844 17.6016L8.25 22.3828L13.1016 17.6016C13.6172 17.1328 14.1328 17.1328 14.6484 17.6016C15.1172 18.1172 15.1172 18.6328 14.6484 19.1484L9.86719 24ZM33.3516 17.6016C33.8672 17.1328 34.3828 17.1328 34.8984 17.6016L39.75 22.3828L44.6016 17.6016C45.1172 17.1328 45.6328 17.1328 46.1484 17.6016C46.6172 18.1172 46.6172 18.6328 46.1484 19.1484L41.3672 24L46.1484 28.8516C46.6172 29.3672 46.6172 29.8828 46.1484 30.3984C45.6328 30.8672 45.1172 30.8672 44.6016 30.3984L39.75 25.6172L34.8984 30.3984C34.3828 30.8672 33.8672 30.8672 33.3516 30.3984C32.8828 29.8828 32.8828 29.3672 33.3516 28.8516L38.1328 24L33.3516 19.1484C32.8828 18.6328 32.8828 18.1172 33.3516 17.6016Z" fill="#408077"/>
</svg>
