<svg width="46" height="36" viewBox="0 0 46 36" fill="none" xmlns="http://www.w3.org/2000/svg">
<path d="M29.6797 1.48804L18.4297 35.238C18.1484 35.8474 17.6797 36.0818 17.0234 35.9412C16.4141 35.6599 16.1797 35.1912 16.3203 34.5349L27.5703 0.784912C27.8516 0.128662 28.3203 -0.105713 28.9766 0.0817871C29.5859 0.363037 29.8203 0.831787 29.6797 1.48804ZM12.5234 9.85522L3.3125 18.0115L12.5234 26.1677C12.9922 26.6833 12.9922 27.2224 12.5234 27.7849C12.0547 28.2537 11.5391 28.2771 10.9766 27.8552L0.851562 18.7849C0.617188 18.5974 0.5 18.3396 0.5 18.0115C0.5 17.6833 0.617188 17.4021 0.851562 17.1677L10.9766 8.16772C11.5391 7.74585 12.0547 7.76929 12.5234 8.23804C12.9922 8.80054 12.9922 9.3396 12.5234 9.85522ZM35.0234 8.16772L45.1484 17.1677C45.3828 17.4021 45.5 17.6599 45.5 17.9412C45.5 18.363 45.3828 18.6443 45.1484 18.7849L35.0234 27.8552C34.4609 28.2771 33.9219 28.2537 33.4062 27.7849C32.9844 27.2224 33.0078 26.6833 33.4766 26.1677L42.6875 17.9412L33.4766 9.85522C33.0078 9.3396 32.9844 8.80054 33.4062 8.23804C33.9219 7.76929 34.4609 7.74585 35.0234 8.16772Z" fill="#408077"/>
</svg>
