<svg width="48" height="48" viewBox="0 0 48 48" fill="none" xmlns="http://www.w3.org/2000/svg">
<path d="M19.5 11.625C19.4531 13.0312 19.0312 14.2266 18.2344 15.2109C17.3906 16.1953 16.3125 16.8281 15 17.1094V25.2656C16.5 23.7188 18.375 22.9219 20.625 22.875H27.375C28.9688 22.8281 30.3047 22.2891 31.3828 21.2578C32.4141 20.1797 32.9531 18.8438 33 17.25V17.1094C31.6875 16.8281 30.6094 16.1953 29.7656 15.2109C28.9688 14.2266 28.5469 13.0312 28.5 11.625C28.5469 10.0312 29.0859 8.69531 30.1172 7.61719C31.1953 6.58594 32.5312 6.04688 34.125 6C35.7188 6.04688 37.0547 6.58594 38.1328 7.61719C39.1641 8.69531 39.7031 10.0312 39.75 11.625C39.7031 13.0312 39.2812 14.2266 38.4844 15.2109C37.6406 16.1953 36.5625 16.8281 35.25 17.1094V17.25C35.2031 19.5 34.4297 21.3516 32.9297 22.8047C31.4766 24.3047 29.625 25.0781 27.375 25.125H20.625C19.0312 25.1719 17.6953 25.7109 16.6172 26.7422C15.5859 27.8203 15.0469 29.1562 15 30.75V30.8906C16.3125 31.1719 17.3906 31.8047 18.2344 32.7891C19.0312 33.7734 19.4531 34.9688 19.5 36.375C19.4531 37.9688 18.9141 39.3047 17.8828 40.3828C16.8047 41.4141 15.4688 41.9531 13.875 42C12.2812 41.9531 10.9453 41.4141 9.86719 40.3828C8.83594 39.3047 8.29688 37.9688 8.25 36.375C8.29688 34.9688 8.71875 33.7734 9.51562 32.7891C10.3594 31.8047 11.4375 31.1719 12.75 30.8906V17.1094C11.4375 16.8281 10.3594 16.1953 9.51562 15.2109C8.71875 14.2266 8.29688 13.0312 8.25 11.625C8.29688 10.0312 8.83594 8.69531 9.86719 7.61719C10.9453 6.58594 12.2812 6.04688 13.875 6C15.4688 6.04688 16.8047 6.58594 17.8828 7.61719C18.9141 8.69531 19.4531 10.0312 19.5 11.625ZM13.875 15C14.8125 14.9531 15.6094 14.625 16.2656 14.0156C16.875 13.3594 17.2031 12.5625 17.25 11.625C17.2031 10.6875 16.875 9.89062 16.2656 9.23438C15.6094 8.625 14.8125 8.29688 13.875 8.25C12.9375 8.29688 12.1406 8.625 11.4844 9.23438C10.875 9.89062 10.5469 10.6875 10.5 11.625C10.5469 12.5625 10.875 13.3594 11.4844 14.0156C12.1406 14.625 12.9375 14.9531 13.875 15ZM34.125 15C35.0625 14.9531 35.8594 14.625 36.5156 14.0156C37.125 13.3594 37.4531 12.5625 37.5 11.625C37.4531 10.6875 37.125 9.89062 36.5156 9.23438C35.8594 8.625 35.0625 8.29688 34.125 8.25C33.1875 8.29688 32.3906 8.625 31.7344 9.23438C31.125 9.89062 30.7969 10.6875 30.75 11.625C30.7969 12.5625 31.125 13.3594 31.7344 14.0156C32.3906 14.625 33.1875 14.9531 34.125 15ZM13.875 39.75C14.8125 39.7031 15.6094 39.375 16.2656 38.7656C16.875 38.1094 17.2031 37.3125 17.25 36.375C17.2031 35.4375 16.875 34.6406 16.2656 33.9844C15.6094 33.375 14.8125 33.0469 13.875 33C12.9375 33.0469 12.1406 33.375 11.4844 33.9844C10.875 34.6406 10.5469 35.4375 10.5 36.375C10.5469 37.3125 10.875 38.1094 11.4844 38.7656C12.1406 39.375 12.9375 39.7031 13.875 39.75Z" fill="#408077"/>
</svg>
