<svg width="48" height="48" viewBox="0 0 48 48" fill="none" xmlns="http://www.w3.org/2000/svg">
<path d="M35.25 6C36.5156 6.04688 37.5703 6.49219 38.4141 7.33594C39.2578 8.17969 39.7031 9.23438 39.75 10.5V33C39.6562 34.7344 38.9062 36.0234 37.5 36.8672V39.75C37.5 40.4062 37.2891 40.9453 36.8672 41.3672C36.4453 41.7891 35.9062 42 35.25 42H12.75C12.0938 42 11.5547 41.7891 11.1328 41.3672C10.7109 40.9453 10.5 40.4062 10.5 39.75V36.8672C9.09375 36.0234 8.34375 34.7344 8.25 33V10.5C8.29688 9.23438 8.74219 8.17969 9.58594 7.33594C10.4297 6.49219 11.4844 6.04688 12.75 6H35.25ZM35.25 39.75V37.5H12.75V39.75H35.25ZM37.5 33V10.5C37.5 9.84375 37.2891 9.30469 36.8672 8.88281C36.4453 8.46094 35.9062 8.25 35.25 8.25H12.75C12.0938 8.25 11.5547 8.46094 11.1328 8.88281C10.7109 9.30469 10.5 9.84375 10.5 10.5V33C10.5 33.6562 10.7109 34.1953 11.1328 34.6172C11.5547 35.0391 12.0938 35.25 12.75 35.25H35.25C35.9062 35.25 36.4453 35.0391 36.8672 34.6172C37.2891 34.1953 37.5 33.6562 37.5 33ZM30.6797 10.5C31.9922 10.5469 33.0703 10.9922 33.9141 11.8359C34.7578 12.6797 35.2031 13.7344 35.25 15V19.5C35.2031 20.7656 34.7578 21.8203 33.9141 22.6641C33.0703 23.5078 31.9922 23.9531 30.6797 24H17.1797C15.9609 23.9531 14.9297 23.5078 14.0859 22.6641C13.2422 21.8203 12.7969 20.7656 12.75 19.5L12.6797 15C12.7266 13.7344 13.1719 12.6797 14.0156 11.8359C14.8594 10.9922 15.9141 10.5469 17.1797 10.5H30.6797ZM33 19.5V15C33 14.3438 32.7891 13.8047 32.3672 13.3828C31.9453 12.9609 31.4062 12.75 30.75 12.75H17.25C16.5938 12.75 16.0547 12.9609 15.6328 13.3828C15.2109 13.8047 15 14.3438 15 15V19.5C15 20.1562 15.2109 20.6953 15.6328 21.1172C16.0547 21.5391 16.5938 21.75 17.25 21.75H30.75C31.4062 21.75 31.9453 21.5391 32.3672 21.1172C32.7891 20.6953 33 20.1562 33 19.5ZM15 27.9375C16.0312 28.0312 16.5938 28.5938 16.6875 29.625C16.5938 30.6562 16.0312 31.2188 15 31.3125C13.9688 31.2188 13.4062 30.6562 13.3125 29.625C13.4062 28.5938 13.9688 28.0312 15 27.9375ZM34.125 28.5C34.8281 28.5469 35.2031 28.9219 35.25 29.625C35.2031 30.3281 34.8281 30.7031 34.125 30.75H25.125C24.4219 30.7031 24.0469 30.3281 24 29.625C24.0469 28.9219 24.4219 28.5469 25.125 28.5H34.125Z" fill="#408077"/>
</svg>
