<svg width="40.599609" height="29.000000" viewBox="0 0 40.5996 29" fill="none" xmlns="http://www.w3.org/2000/svg" xmlns:xlink="http://www.w3.org/1999/xlink">
	<desc>
			Created with Pixso.
	</desc>
	<defs/>
	<path id="" d="M40.59 18.12C40.53 21.2 39.48 23.77 37.42 25.82C35.37 27.88 32.8 28.93 29.72 29L29 29C28.15 29 27.45 28.72 26.91 28.18C26.37 27.64 26.09 26.94 26.09 26.1C26.09 25.25 26.37 24.55 26.91 24.01C27.45 23.47 28.15 23.2 29 23.2L29.72 23.2C31.17 23.13 32.38 22.65 33.34 21.75C34.25 20.78 34.74 19.57 34.8 18.12L34.8 17.39L29 17.39C27.36 17.33 26 16.76 24.92 15.67C23.83 14.59 23.25 13.23 23.19 11.6L23.19 5.8C23.25 4.16 23.83 2.8 24.92 1.72C26 0.63 27.36 0.06 29 0L34.8 0C36.43 0.06 37.79 0.63 38.87 1.72C39.96 2.8 40.53 4.16 40.59 5.8L40.59 18.12ZM17.4 18.12C17.33 21.2 16.28 23.77 14.22 25.82C12.17 27.88 9.6 28.93 6.52 29L5.8 29C4.95 29 4.25 28.72 3.71 28.18C3.17 27.64 2.9 26.94 2.9 26.1C2.9 25.25 3.17 24.55 3.71 24.01C4.25 23.47 4.95 23.2 5.8 23.2L6.52 23.2C7.97 23.13 9.18 22.65 10.15 21.75C11.05 20.78 11.53 19.57 11.59 18.12L11.59 17.39L5.8 17.39C4.16 17.33 2.8 16.76 1.72 15.67C0.63 14.59 0.06 13.23 0 11.6L0 5.8C0.06 4.16 0.63 2.8 1.72 1.72C2.8 0.63 4.16 0.06 5.8 0L11.59 0C13.23 0.06 14.58 0.63 15.67 1.72C16.76 2.8 17.33 4.16 17.4 5.8L17.4 18.12Z" fill="#3C0F3C" fill-opacity="1.000000" fill-rule="nonzero"/>
</svg>
