<svg width="34" height="34" viewBox="0 0 34 34" fill="none" xmlns="http://www.w3.org/2000/svg">
<path d="M33.6849 17.7033C33.6249 17.6507 33.5546 17.6114 33.4784 17.5879C33.4022 17.5645 33.3219 17.5574 33.2428 17.5671L33.1021 17.5846C31.8587 17.7428 30.5955 17.5846 29.4296 17.1245C28.2637 16.6644 27.2328 15.9174 26.4326 14.9526C26.3779 14.8921 26.3112 14.8437 26.2367 14.8106C26.1622 14.7775 26.0815 14.7604 26 14.7604C25.9185 14.7604 25.8378 14.7775 25.7633 14.8106C25.6888 14.8437 25.6221 14.8921 25.5674 14.9526C24.7673 15.9174 23.7364 16.6645 22.5705 17.1246C21.4045 17.5848 20.1413 17.743 18.8979 17.5846L18.7573 17.5671C18.6781 17.5572 18.5978 17.5643 18.5216 17.5878C18.4454 17.6113 18.3751 17.6508 18.3153 17.7035C18.2555 17.7563 18.2076 17.8212 18.1748 17.8939C18.142 17.9666 18.125 18.0454 18.125 18.1251V24.1242C18.1248 25.4884 18.4554 26.8323 19.0885 28.0408C19.7216 29.2492 20.6382 30.2861 21.7599 31.0626L25.6799 33.7761C25.774 33.8412 25.8856 33.8761 26 33.8761C26.1144 33.8761 26.226 33.8412 26.3201 33.7761L30.2401 31.0626C31.3618 30.2861 32.2784 29.2492 32.9115 28.0408C33.5446 26.8323 33.8752 25.4884 33.875 24.1242V18.1251C33.875 18.0453 33.8581 17.9665 33.8253 17.8937C33.7925 17.821 33.7447 17.7561 33.6849 17.7033ZM32.75 24.1242C32.75 25.3063 32.4634 26.4707 31.9148 27.5178C31.3662 28.5649 30.5719 29.4633 29.6 30.1362L26 32.6286L22.4 30.1362C21.4281 29.4633 20.6338 28.5649 20.0852 27.5178C19.5366 26.4707 19.25 25.3063 19.25 24.1242V18.7484C20.4962 18.8357 21.7463 18.6488 22.9125 18.201C24.0787 17.7532 25.1326 17.0553 26 16.1564C26.8679 17.0548 27.9218 17.7525 29.0878 18.2007C30.2539 18.6488 31.5038 18.8365 32.75 18.7506V24.1242Z" fill="white"/>
<path d="M31.1221 19.8364C29.3863 19.649 27.7332 18.9968 26.3369 17.9487C26.2396 17.8757 26.1211 17.8362 25.9994 17.8362C25.8777 17.8362 25.7593 17.8757 25.6619 17.9487C24.2658 18.9967 22.6129 19.6489 20.8773 19.8364C20.7394 19.8513 20.6118 19.9166 20.5191 20.0198C20.4263 20.123 20.375 20.2568 20.375 20.3956V24.1244C20.375 25.1246 20.6176 26.11 21.0818 26.996C21.5461 27.882 22.2182 28.6423 23.0407 29.2116L25.6799 31.0386C25.774 31.1037 25.8856 31.1386 26 31.1386C26.1144 31.1386 26.226 31.1037 26.3201 31.0386L28.9599 29.2111C29.782 28.6416 30.4539 27.8814 30.918 26.9955C31.382 26.1096 31.6244 25.1245 31.6244 24.1244V20.3956C31.6244 20.2568 31.5731 20.123 31.4804 20.0198C31.3877 19.9166 31.2601 19.8513 31.1221 19.8364ZM30.4994 24.1244C30.4995 24.9428 30.3011 25.749 29.9213 26.474C29.5414 27.1989 28.9915 27.821 28.3186 28.2869L25.9994 29.8917L23.6808 28.2863C23.0079 27.8206 22.4579 27.1986 22.078 26.4738C21.6981 25.7489 21.4996 24.9427 21.4994 24.1244V20.8889C23.1159 20.6373 24.6544 20.0229 25.9994 19.0917C27.3445 20.0229 28.883 20.6373 30.4994 20.8889V24.1244Z" fill="white"/>
<path d="M23.5246 24.9877L22.8496 25.8877L25.0996 27.5752C25.2176 27.6636 25.3655 27.7022 25.5117 27.6826C25.6578 27.663 25.7904 27.5869 25.8809 27.4705L29.8184 22.408L28.9308 21.7173L25.3308 26.3433L23.5246 24.9877Z" fill="white"/>
<path d="M0.6875 33.8751H23.1875V32.7501H1.25V1.25012H19.8125V6.31262C19.8125 6.46181 19.8718 6.60488 19.9773 6.71037C20.0827 6.81586 20.2258 6.87512 20.375 6.87512H25.4375V13.6251H26.5625V6.31262C26.5625 6.16345 26.5032 6.0204 26.3977 5.91493L20.7727 0.289935C20.6672 0.184438 20.5242 0.125154 20.375 0.125122H0.6875C0.538316 0.125122 0.395242 0.184385 0.289752 0.289874C0.184263 0.395364 0.125 0.538438 0.125 0.687622V33.3126C0.125 33.4618 0.184263 33.6049 0.289752 33.7104C0.395242 33.8159 0.538316 33.8751 0.6875 33.8751ZM20.9375 2.0455L24.6421 5.75012H20.9375V2.0455Z" fill="white"/>
<path d="M8.5625 2.93774H17.5625V4.06274H8.5625V2.93774Z" fill="white"/>
<path d="M8.5625 5.18774H17.5625V6.31274H8.5625V5.18774Z" fill="white"/>
<path d="M3.5 8.56274H11.9375V9.68774H3.5V8.56274Z" fill="white"/>
<path d="M3.5 10.8127H14.75V11.9377H3.5V10.8127Z" fill="white"/>
<path d="M3.5 13.0627H14.1875V14.1877H3.5V13.0627Z" fill="white"/>
<path d="M13.0625 8.56274H23.1875V9.68774H13.0625V8.56274Z" fill="white"/>
<path d="M15.875 10.8127H23.1875V11.9377H15.875V10.8127Z" fill="white"/>
<path d="M23.1875 13.0627H20.375H15.875H15.3125V14.1877H15.875H20.375H23.1875V13.0627Z" fill="white"/>
<path d="M3.5 15.3127H21.5V16.4377H3.5V15.3127Z" fill="white"/>
<path d="M13.0625 17.5627H17V18.6877H13.0625V17.5627Z" fill="white"/>
<path d="M3.5 17.5627H11.9375V18.6877H3.5V17.5627Z" fill="white"/>
<path d="M9.125 19.8127H17V20.9377H9.125V19.8127Z" fill="white"/>
<path d="M3.5 23.7502H10.25V24.8752H3.5V23.7502Z" fill="white"/>
<path d="M11.375 23.7502H17V24.8752H11.375V23.7502Z" fill="white"/>
<path d="M3.5 26.0002H17V27.1252H3.5V26.0002Z" fill="white"/>
<path d="M14.75 28.2502H18.125V29.3752H14.75V28.2502Z" fill="white"/>
<path d="M3.5 19.8127H8V20.9377H3.5V19.8127Z" fill="white"/>
<path d="M3.5 28.2502H13.625V29.3752H3.5V28.2502Z" fill="white"/>
</svg>
