<svg width="36" height="36" viewBox="0 0 36 36" fill="none" xmlns="http://www.w3.org/2000/svg">
<path d="M11.4007 31.1994C11.7321 31.1994 12.0007 30.9308 12.0007 30.5995C12.0007 30.2681 11.7321 29.9995 11.4007 29.9995C11.0694 29.9995 10.8008 30.2681 10.8008 30.5995C10.8008 30.9308 11.0694 31.1994 11.4007 31.1994Z" fill="white"/>
<path d="M19.8011 31.1994C20.1325 31.1994 20.4011 30.9308 20.4011 30.5995C20.4011 30.2681 20.1325 29.9995 19.8011 29.9995C19.4698 29.9995 19.2012 30.2681 19.2012 30.5995C19.2012 30.9308 19.4698 31.1994 19.8011 31.1994Z" fill="white"/>
<path d="M22.2005 31.1994C22.5319 31.1994 22.8005 30.9308 22.8005 30.5995C22.8005 30.2681 22.5319 29.9995 22.2005 29.9995C21.8692 29.9995 21.6006 30.2681 21.6006 30.5995C21.6006 30.9308 21.8692 31.1994 22.2005 31.1994Z" fill="white"/>
<path d="M24.6009 31.1994C24.9323 31.1994 25.2009 30.9308 25.2009 30.5995C25.2009 30.2681 24.9323 29.9995 24.6009 29.9995C24.2696 29.9995 24.001 30.2681 24.001 30.5995C24.001 30.9308 24.2696 31.1994 24.6009 31.1994Z" fill="white"/>
<path d="M17.4007 31.1994C17.7321 31.1994 18.0007 30.9308 18.0007 30.5995C18.0007 30.2681 17.7321 29.9995 17.4007 29.9995C17.0694 29.9995 16.8008 30.2681 16.8008 30.5995C16.8008 30.9308 17.0694 31.1994 17.4007 31.1994Z" fill="white"/>
<path d="M11.4007 26.3997C11.7321 26.3997 12.0007 26.1311 12.0007 25.7998C12.0007 25.4684 11.7321 25.1998 11.4007 25.1998C11.0694 25.1998 10.8008 25.4684 10.8008 25.7998C10.8008 26.1311 11.0694 26.3997 11.4007 26.3997Z" fill="white"/>
<path d="M19.8011 26.3997C20.1325 26.3997 20.4011 26.1311 20.4011 25.7998C20.4011 25.4684 20.1325 25.1998 19.8011 25.1998C19.4698 25.1998 19.2012 25.4684 19.2012 25.7998C19.2012 26.1311 19.4698 26.3997 19.8011 26.3997Z" fill="white"/>
<path d="M22.2005 26.3997C22.5319 26.3997 22.8005 26.1311 22.8005 25.7998C22.8005 25.4684 22.5319 25.1998 22.2005 25.1998C21.8692 25.1998 21.6006 25.4684 21.6006 25.7998C21.6006 26.1311 21.8692 26.3997 22.2005 26.3997Z" fill="white"/>
<path d="M24.6009 26.3997C24.9323 26.3997 25.2009 26.1311 25.2009 25.7998C25.2009 25.4684 24.9323 25.1998 24.6009 25.1998C24.2696 25.1998 24.001 25.4684 24.001 25.7998C24.001 26.1311 24.2696 26.3997 24.6009 26.3997Z" fill="white"/>
<path d="M17.4007 26.3997C17.7321 26.3997 18.0007 26.1311 18.0007 25.7998C18.0007 25.4684 17.7321 25.1998 17.4007 25.1998C17.0694 25.1998 16.8008 25.4684 16.8008 25.7998C16.8008 26.1311 17.0694 26.3997 17.4007 26.3997Z" fill="white"/>
<path d="M11.4007 21.5999C11.7321 21.5999 12.0007 21.3313 12.0007 21C12.0007 20.6686 11.7321 20.4 11.4007 20.4C11.0694 20.4 10.8008 20.6686 10.8008 21C10.8008 21.3313 11.0694 21.5999 11.4007 21.5999Z" fill="white"/>
<path d="M19.8011 21.5999C20.1325 21.5999 20.4011 21.3313 20.4011 21C20.4011 20.6686 20.1325 20.4 19.8011 20.4C19.4698 20.4 19.2012 20.6686 19.2012 21C19.2012 21.3313 19.4698 21.5999 19.8011 21.5999Z" fill="white"/>
<path d="M22.2005 21.5999C22.5319 21.5999 22.8005 21.3313 22.8005 21C22.8005 20.6686 22.5319 20.4 22.2005 20.4C21.8692 20.4 21.6006 20.6686 21.6006 21C21.6006 21.3313 21.8692 21.5999 22.2005 21.5999Z" fill="white"/>
<path d="M24.6009 21.5999C24.9323 21.5999 25.2009 21.3313 25.2009 21C25.2009 20.6686 24.9323 20.4 24.6009 20.4C24.2696 20.4 24.001 20.6686 24.001 21C24.001 21.3313 24.2696 21.5999 24.6009 21.5999Z" fill="white"/>
<path d="M17.4007 21.5999C17.7321 21.5999 18.0007 21.3313 18.0007 21C18.0007 20.6686 17.7321 20.4 17.4007 20.4C17.0694 20.4 16.8008 20.6686 16.8008 21C16.8008 21.3313 17.0694 21.5999 17.4007 21.5999Z" fill="white"/>
<path d="M11.4007 16.8C11.7321 16.8 12.0007 16.5314 12.0007 16.2001C12.0007 15.8687 11.7321 15.6001 11.4007 15.6001C11.0694 15.6001 10.8008 15.8687 10.8008 16.2001C10.8008 16.5314 11.0694 16.8 11.4007 16.8Z" fill="white"/>
<path d="M3.00132 18.5999C3.33267 18.5999 3.60128 18.3313 3.60128 18C3.60128 17.6686 3.33267 17.4 3.00132 17.4C2.66998 17.4 2.40137 17.6686 2.40137 18C2.40137 18.3313 2.66998 18.5999 3.00132 18.5999Z" fill="white"/>
<path d="M3.00132 23.3999C3.33267 23.3999 3.60128 23.1313 3.60128 22.7999C3.60128 22.4686 3.33267 22.2 3.00132 22.2C2.66998 22.2 2.40137 22.4686 2.40137 22.7999C2.40137 23.1313 2.66998 23.3999 3.00132 23.3999Z" fill="white"/>
<path d="M3.00132 28.1995C3.33267 28.1995 3.60128 27.9309 3.60128 27.5996C3.60128 27.2682 3.33267 26.9996 3.00132 26.9996C2.66998 26.9996 2.40137 27.2682 2.40137 27.5996C2.40137 27.9309 2.66998 28.1995 3.00132 28.1995Z" fill="white"/>
<path d="M19.8011 16.8C20.1325 16.8 20.4011 16.5314 20.4011 16.2001C20.4011 15.8687 20.1325 15.6001 19.8011 15.6001C19.4698 15.6001 19.2012 15.8687 19.2012 16.2001C19.2012 16.5314 19.4698 16.8 19.8011 16.8Z" fill="white"/>
<path d="M22.2005 16.8C22.5319 16.8 22.8005 16.5314 22.8005 16.2001C22.8005 15.8687 22.5319 15.6001 22.2005 15.6001C21.8692 15.6001 21.6006 15.8687 21.6006 16.2001C21.6006 16.5314 21.8692 16.8 22.2005 16.8Z" fill="white"/>
<path d="M24.6009 16.8C24.9323 16.8 25.2009 16.5314 25.2009 16.2001C25.2009 15.8687 24.9323 15.6001 24.6009 15.6001C24.2696 15.6001 24.001 15.8687 24.001 16.2001C24.001 16.5314 24.2696 16.8 24.6009 16.8Z" fill="white"/>
<path d="M17.4007 16.8C17.7321 16.8 18.0007 16.5314 18.0007 16.2001C18.0007 15.8687 17.7321 15.6001 17.4007 15.6001C17.0694 15.6001 16.8008 15.8687 16.8008 16.2001C16.8008 16.5314 17.0694 16.8 17.4007 16.8Z" fill="white"/>
<path d="M34.1998 15.0001H27.6C27.6 14.006 26.7941 13.2002 25.8001 13.2002H10.2006C9.20655 13.2002 8.40065 14.0061 8.40065 15.0001H1.80092C0.806872 15.0001 0.000976562 15.806 0.000976562 16.8001V19.2C0.00252339 19.6442 0.169369 20.072 0.468961 20.4C0.169369 20.728 0.00252339 21.1557 0.000976562 21.5999V23.9998C0.00252339 24.4441 0.169369 24.8718 0.468961 25.1998C0.169369 25.5278 0.00252339 25.9556 0.000976562 26.3998V28.7997C0.00414052 29.5598 0.484359 30.2359 1.20096 30.4893V31.7996C1.20096 32.4624 1.7382 32.9996 2.40094 32.9996H8.86871C9.06839 33.2209 9.31989 33.3891 9.60071 33.4892V34.7995C9.60071 35.4623 10.1379 35.9995 10.8007 35.9995H25.2002C25.863 35.9995 26.4002 35.4623 26.4002 34.7995V33.4892C26.6809 33.3891 26.9324 33.2209 27.1322 32.9996H33.6C34.2627 32.9996 34.7999 32.4624 34.7999 31.7996V30.4893C35.5165 30.2359 35.9968 29.5598 35.9999 28.7997V26.3998C35.9984 25.9556 35.8315 25.5278 35.5319 25.1998C35.8315 24.8718 35.9984 24.4441 35.9999 23.9998V21.5999C35.9984 21.1557 35.8315 20.728 35.5319 20.4C35.8315 20.072 35.9984 19.6442 35.9999 19.2V16.8001C35.9998 15.806 35.1939 15.0001 34.1998 15.0001ZM34.1998 16.2001C34.5312 16.2001 34.7998 16.4688 34.7998 16.8001V19.2C34.7998 19.5313 34.5311 19.7999 34.1998 19.7999H27.6C27.5985 19.3557 27.4316 18.9279 27.1321 18.5999C27.4316 18.2719 27.5985 17.8442 27.6 17.4V16.2H34.1998V16.2001ZM34.7998 21.5999V23.9998C34.7998 24.3312 34.5311 24.5998 34.1998 24.5998H27.6C27.5985 24.1556 27.4316 23.7278 27.1321 23.3998C27.4316 23.0718 27.5985 22.644 27.6 22.1998V20.9998H34.1998C34.5311 21 34.7998 21.2686 34.7998 21.5999ZM1.20089 28.7997V26.3998C1.20089 26.0684 1.46955 25.7998 1.80085 25.7998H8.40065V26.9998C8.4022 27.4441 8.56904 27.8718 8.86864 28.1998C8.56904 28.5278 8.4022 28.9556 8.40065 29.3998H1.80092C1.46954 29.3997 1.20089 29.1311 1.20089 28.7997ZM1.20089 23.9998V21.5999C1.20089 21.2686 1.46955 21 1.80085 21H8.40065V22.2C8.4022 22.6442 8.56904 23.072 8.86864 23.4C8.56904 23.7279 8.4022 24.1557 8.40065 24.5999H1.80092C1.46954 24.5999 1.20089 24.3312 1.20089 23.9998ZM26.4001 19.8V22.1999C26.4001 22.5313 26.1314 22.7999 25.8001 22.7999H10.2006C9.86922 22.7999 9.60064 22.5312 9.60064 22.1999V19.8C9.60064 19.4686 9.86922 19.2 10.2006 19.2H25.8001C26.1315 19.2 26.4001 19.4686 26.4001 19.8ZM9.60064 26.9998V24.5999C9.60064 24.2685 9.86922 23.9999 10.2006 23.9999H25.8001C26.1315 23.9999 26.4001 24.2686 26.4001 24.5999V26.9998C26.4001 27.3311 26.1314 27.5997 25.8001 27.5997H10.2006C9.86922 27.5997 9.60064 27.3311 9.60064 26.9998ZM9.60064 15.0001C9.60064 14.6688 9.86922 14.4002 10.2006 14.4002H25.8001C26.1315 14.4002 26.4001 14.6688 26.4001 15.0001V17.4C26.4001 17.7314 26.1314 18 25.8001 18H10.2006C9.86922 18 9.60064 17.7314 9.60064 17.4V15.0001ZM1.20089 16.8001C1.20089 16.4687 1.46955 16.2001 1.80085 16.2001H8.40065V17.4001C8.4022 17.8443 8.56904 18.2721 8.86864 18.6001C8.56904 18.9281 8.4022 19.3559 8.40065 19.8001H1.80092C1.46954 19.8001 1.20096 19.5315 1.20096 19.2001L1.20089 16.8001ZM2.40087 31.7996V30.5996H8.40065V31.7996H2.40087ZM10.8006 34.7995V33.5995H25.2001V34.7995H10.8006ZM26.4001 31.7996C26.4001 32.131 26.1314 32.3996 25.8001 32.3996H10.2006C9.86922 32.3996 9.60064 32.131 9.60064 31.7996V29.3997C9.60064 29.0684 9.86922 28.7998 10.2006 28.7998H25.8001C26.1315 28.7998 26.4001 29.0684 26.4001 29.3997V31.7996ZM33.5998 31.7996H27.6V30.5996H33.5998V31.7996ZM34.7998 28.7997C34.7998 29.1311 34.5311 29.3997 34.1998 29.3997H27.6C27.5985 28.9554 27.4316 28.5277 27.1321 28.1997C27.4316 27.8717 27.5985 27.4439 27.6 26.9997V25.7997H34.1998C34.5312 25.7997 34.7998 26.0683 34.7998 26.3997V28.7997Z" fill="white"/>
<path d="M33.0003 18.6001C33.3317 18.6001 33.6003 18.3315 33.6003 18.0001C33.6003 17.6688 33.3317 17.4001 33.0003 17.4001C32.669 17.4001 32.4004 17.6688 32.4004 18.0001C32.4004 18.3315 32.669 18.6001 33.0003 18.6001Z" fill="white"/>
<path d="M33.0003 23.3997C33.3317 23.3997 33.6003 23.1311 33.6003 22.7998C33.6003 22.4684 33.3317 22.1998 33.0003 22.1998C32.669 22.1998 32.4004 22.4684 32.4004 22.7998C32.4004 23.1311 32.669 23.3997 33.0003 23.3997Z" fill="white"/>
<path d="M33.0003 28.1995C33.3317 28.1995 33.6003 27.9309 33.6003 27.5996C33.6003 27.2682 33.3317 26.9996 33.0003 26.9996C32.669 26.9996 32.4004 27.2682 32.4004 27.5996C32.4004 27.9309 32.669 28.1995 33.0003 28.1995Z" fill="white"/>
<path d="M34.8004 9.32127L19.2009 0.321571C18.4579 -0.105563 17.544 -0.105563 16.801 0.321571L1.20151 9.32127C0.0535572 9.98402 -0.339828 11.4519 0.322845 12.5999C0.985519 13.7479 2.45345 14.1413 3.60141 13.4786L18.0009 5.17122L32.4005 13.4786C33.5485 14.1413 35.0163 13.7479 35.679 12.5999C36.3417 11.4519 35.9484 9.98402 34.8004 9.32127ZM34.6391 12.0002C34.2971 12.5598 33.5765 12.753 33.0005 12.4394L18.3009 3.96047C18.1153 3.85332 17.8866 3.85332 17.701 3.96047L3.00145 12.4394C2.42737 12.7708 1.69333 12.574 1.36203 11.9999C1.03066 11.4258 1.22746 10.6918 1.80154 10.3605L17.401 1.36076C17.7725 1.14715 18.2295 1.14715 18.601 1.36076L34.2005 10.3605C34.4762 10.5197 34.6773 10.782 34.7596 11.0894C34.8418 11.3969 34.7984 11.7246 34.6391 12.0002Z" fill="white"/>
</svg>
