<svg width="36" height="36" viewBox="0 0 36 36" fill="none" xmlns="http://www.w3.org/2000/svg">
<g clip-path="url(#clip0_535_1298)">
<path d="M11.4004 30.0002H24.6005C25.5945 30.0002 26.4003 29.1943 26.4003 28.2V17.3999C26.4003 16.4059 25.5945 15.6001 24.6005 15.6001V12.4967C24.6005 8.85175 21.6454 5.89697 18.0005 5.89697C14.3555 5.89697 11.4004 8.85175 11.4004 12.4967V15.6001C10.4064 15.6001 9.60059 16.4059 9.60059 17.3999V28.2C9.60059 29.1943 10.4064 30.0002 11.4004 30.0002ZM12.6004 12.4967C12.6004 9.5145 15.0182 7.09695 18.0005 7.09695C20.9827 7.09695 23.4005 9.5145 23.4005 12.4967V15.6001H22.2005V12.4967C22.2005 10.1772 20.3199 8.29694 18.0005 8.29694C15.681 8.29694 13.8004 10.1772 13.8004 12.4967V15.6001H12.6004V12.4967ZM21.0005 15.6001H15.0004V12.4967C15.0004 10.84 16.3437 9.49692 18.0005 9.49692C19.6572 9.49692 21.0005 10.84 21.0005 12.4967V15.6001ZM11.4004 16.8001H24.6005C24.9317 16.8001 25.2003 17.0687 25.2003 17.3999V19.2H22.8004C22.4691 19.2 22.2005 19.4687 22.2005 19.8002C22.2005 20.1314 22.4691 20.4 22.8004 20.4H25.2003V22.2001H22.8004C22.4691 22.2001 22.2005 22.4688 22.2005 22.8C22.2005 23.1315 22.4691 23.4001 22.8004 23.4001H25.2003V25.8001H22.8004C22.4691 25.8001 22.2005 26.0687 22.2005 26.3999C22.2005 26.7314 22.4691 27.0001 22.8004 27.0001H25.2003V28.2C25.2003 28.5316 24.9317 28.8002 24.6005 28.8002H11.4004C11.0692 28.8002 10.8006 28.5316 10.8006 28.2V27.0001H13.2005C13.5318 27.0001 13.8004 26.7314 13.8004 26.3999C13.8004 26.0687 13.5318 25.8001 13.2005 25.8001H10.8006V23.4001H13.2005C13.5318 23.4001 13.8004 23.1315 13.8004 22.8C13.8004 22.4688 13.5318 22.2001 13.2005 22.2001H10.8006V20.4H13.2005C13.5318 20.4 13.8004 20.1314 13.8004 19.8002C13.8004 19.4687 13.5318 19.2 13.2005 19.2H10.8006V17.3999C10.8006 17.0687 11.0692 16.8001 11.4004 16.8001Z" fill="white"/>
<path d="M16.1991 23.9493V25.8049C16.2019 26.464 16.7355 26.9974 17.3944 27.0002H18.604C19.2629 26.9974 19.7966 26.464 19.7994 25.8049V23.9402C19.8076 23.7806 19.8732 23.6293 19.9839 23.5142C20.4063 23.0495 20.6439 22.4463 20.6519 21.8185C20.6511 21.0349 20.2968 20.2933 19.6876 19.8003C19.0581 19.2902 18.2324 19.0908 17.4395 19.2573C16.401 19.4734 15.5941 20.2919 15.3922 21.3332C15.2513 22.1181 15.4812 22.9243 16.0151 23.5167C16.1264 23.634 16.1917 23.7875 16.1991 23.9493ZM16.5718 21.5529C16.6861 20.9929 17.1209 20.5537 17.6795 20.4331C17.7858 20.4114 17.8943 20.4004 18.0028 20.4001C18.3406 20.3988 18.668 20.5152 18.9292 20.7295C19.2594 20.9959 19.4514 21.3969 19.4519 21.8209C19.4434 22.1555 19.3132 22.4755 19.0858 22.721C18.7804 23.0544 18.6073 23.4881 18.5994 23.9402L18.604 25.8002L17.3991 25.8049V23.9493C17.3922 23.4953 17.2206 23.0597 16.9157 22.7235C16.6254 22.4079 16.4982 21.9753 16.5718 21.5529Z" fill="white"/>
<path d="M28.8006 10.2001V6.60013C28.8006 6.26862 28.532 6 28.2004 6C27.8692 6 27.6006 6.26862 27.6006 6.60013V10.2001C27.6006 10.5316 27.8692 10.8002 28.2004 10.8002C28.532 10.8002 28.8006 10.5316 28.8006 10.2001Z" fill="white"/>
<path d="M25.1992 6.60013V10.2001C25.1992 10.5316 25.4678 10.8002 25.7993 10.8002C26.1306 10.8002 26.3992 10.5316 26.3992 10.2001V6.60013C26.3992 6.26862 26.1306 6 25.7993 6C25.4678 6 25.1992 6.26862 25.1992 6.60013Z" fill="white"/>
<path d="M30 6.60013V10.2001C30 10.5316 30.2686 10.8002 30.5999 10.8002C30.9314 10.8002 31.2 10.5316 31.2 10.2001V6.60013C31.2 6.26862 30.9314 6 30.5999 6C30.2686 6 30 6.26862 30 6.60013Z" fill="white"/>
<path d="M28.8006 19.2001C28.8006 18.8688 28.532 18.6002 28.2004 18.6002C27.8692 18.6002 27.6006 18.8688 27.6006 19.2001V22.8C27.6006 23.1315 27.8692 23.4001 28.2004 23.4001C28.532 23.4001 28.8006 23.1315 28.8006 22.8V19.2001Z" fill="white"/>
<path d="M31.2002 22.8C31.2002 23.1315 31.4688 23.4001 31.8 23.4001C32.1316 23.4001 32.4002 23.1315 32.4002 22.8V19.2001C32.4002 18.8688 32.1316 18.6002 31.8 18.6002C31.4688 18.6002 31.2002 18.8688 31.2002 19.2001V22.8Z" fill="white"/>
<path d="M35.3997 18.6002C35.0684 18.6002 34.7998 18.8688 34.7998 19.2001V22.8C34.7998 23.1315 35.0684 23.4001 35.3997 23.4001C35.7312 23.4001 35.9998 23.1315 35.9998 22.8V19.2001C35.9998 18.8688 35.7312 18.6002 35.3997 18.6002Z" fill="white"/>
<path d="M34.8004 6H33.6004C32.9376 6 32.4004 6.53723 32.4004 7.19998V9.60022C32.4004 10.263 32.9376 10.8002 33.6004 10.8002H34.8004C35.4631 10.8002 36.0003 10.263 36.0003 9.60022V7.19998C36.0003 6.53723 35.4631 6 34.8004 6ZM33.6004 9.60022V7.19998H34.8004V9.60022H33.6004Z" fill="white"/>
<path d="M35.3997 12.6C35.0684 12.6 34.7998 12.8686 34.7998 13.2001V16.8C34.7998 17.1313 35.0684 17.3999 35.3997 17.3999C35.7312 17.3999 35.9998 17.1313 35.9998 16.8V13.2001C35.9998 12.8686 35.7312 12.6 35.3997 12.6Z" fill="white"/>
<path d="M33.0002 17.3999C33.3318 17.3999 33.6004 17.1313 33.6004 16.8V13.2001C33.6004 12.8686 33.3318 12.6 33.0002 12.6C32.669 12.6 32.4004 12.8686 32.4004 13.2001V16.8C32.4004 17.1313 32.669 17.3999 33.0002 17.3999Z" fill="white"/>
<path d="M30.0005 17.3999C30.6633 17.3999 31.2005 16.8627 31.2005 16.1999V13.8C31.2005 13.1372 30.6633 12.6 30.0005 12.6H28.8006C28.1378 12.6 27.6006 13.1372 27.6006 13.8V16.1999C27.6006 16.8627 28.1378 17.3999 28.8006 17.3999H30.0005ZM28.8006 13.8H30.0005V16.1999H28.8006V13.8Z" fill="white"/>
<path d="M28.2004 25.2C27.8692 25.2 27.6006 25.4686 27.6006 25.8001V29.4C27.6006 29.7315 27.8692 30.0002 28.2004 30.0002C28.532 30.0002 28.8006 29.7315 28.8006 29.4V25.8001C28.8006 25.4686 28.532 25.2 28.2004 25.2Z" fill="white"/>
<path d="M30 25.8001V29.4C30 29.7315 30.2686 30.0002 30.5999 30.0002C30.9314 30.0002 31.2 29.7315 31.2 29.4V25.8001C31.2 25.4686 30.9314 25.2 30.5999 25.2C30.2686 25.2 30 25.4686 30 25.8001Z" fill="white"/>
<path d="M34.8004 25.2H33.6004C32.9376 25.2 32.4004 25.7372 32.4004 26.3999V28.8002C32.4004 29.4629 32.9376 30.0002 33.6004 30.0002H34.8004C35.4631 30.0002 36.0003 29.4629 36.0003 28.8002V26.3999C36.0003 25.7372 35.4631 25.2 34.8004 25.2ZM33.6004 28.8002V26.3999H34.8004V28.8002H33.6004Z" fill="white"/>
<path d="M7.79935 10.8002C8.13058 10.8002 8.3992 10.5316 8.3992 10.2001V6.60013C8.3992 6.26862 8.13058 6 7.79935 6C7.46783 6 7.19922 6.26862 7.19922 6.60013V10.2001C7.19922 10.5316 7.46783 10.8002 7.79935 10.8002Z" fill="white"/>
<path d="M10.2004 10.8002C10.532 10.8002 10.8006 10.5316 10.8006 10.2001V6.60013C10.8006 6.26862 10.532 6 10.2004 6C9.8692 6 9.60059 6.26862 9.60059 6.60013V10.2001C9.60059 10.5316 9.8692 10.8002 10.2004 10.8002Z" fill="white"/>
<path d="M5.99979 10.2001V6.60013C5.99979 6.26862 5.73117 6 5.39993 6C5.06842 6 4.7998 6.26862 4.7998 6.60013V10.2001C4.7998 10.5316 5.06842 10.8002 5.39993 10.8002C5.73117 10.8002 5.99979 10.5316 5.99979 10.2001Z" fill="white"/>
<path d="M7.79935 23.4001C8.13058 23.4001 8.3992 23.1315 8.3992 22.8V19.2001C8.3992 18.8688 8.13058 18.6002 7.79935 18.6002C7.46783 18.6002 7.19922 18.8688 7.19922 19.2001V22.8C7.19922 23.1315 7.46783 23.4001 7.79935 23.4001Z" fill="white"/>
<path d="M4.79959 22.8V19.2001C4.79959 18.8688 4.53098 18.6002 4.19974 18.6002C3.86823 18.6002 3.59961 18.8688 3.59961 19.2001V22.8C3.59961 23.1315 3.86823 23.4001 4.19974 23.4001C4.53098 23.4001 4.79959 23.1315 4.79959 22.8Z" fill="white"/>
<path d="M0.600128 23.4001C0.931366 23.4001 1.19998 23.1315 1.19998 22.8V19.2001C1.19998 18.8688 0.931366 18.6002 0.600128 18.6002C0.268616 18.6002 0 18.8688 0 19.2001V22.8C0 23.1315 0.268616 23.4001 0.600128 23.4001Z" fill="white"/>
<path d="M1.19998 10.8002H2.39996C3.06271 10.8002 3.59995 10.263 3.59995 9.60022V7.19998C3.59995 6.53723 3.06271 6 2.39996 6H1.19998C0.537231 6 0 6.53723 0 7.19998V9.60022C0 10.263 0.537231 10.8002 1.19998 10.8002ZM1.19998 7.19998H2.39996V9.60022H1.19998V7.19998Z" fill="white"/>
<path d="M0.600128 17.3999C0.931366 17.3999 1.19998 17.1313 1.19998 16.8V13.2001C1.19998 12.8686 0.931366 12.6 0.600128 12.6C0.268616 12.6 0 12.8686 0 13.2001V16.8C0 17.1313 0.268616 17.3999 0.600128 17.3999Z" fill="white"/>
<path d="M3.5994 13.2001C3.5994 12.8686 3.33078 12.6 2.99954 12.6C2.66803 12.6 2.39941 12.8686 2.39941 13.2001V16.8C2.39941 17.1313 2.66803 17.3999 2.99954 17.3999C3.33078 17.3999 3.5994 17.1313 3.5994 16.8V13.2001Z" fill="white"/>
<path d="M4.7998 13.8V16.1999C4.7998 16.8627 5.33704 17.3999 5.99979 17.3999H7.19977C7.86252 17.3999 8.39975 16.8627 8.39975 16.1999V13.8C8.39975 13.1372 7.86252 12.6 7.19977 12.6H5.99979C5.33704 12.6 4.7998 13.1372 4.7998 13.8ZM7.19977 16.1999H5.99979V13.8H7.19977V16.1999Z" fill="white"/>
<path d="M7.19922 29.4C7.19922 29.7315 7.46783 30.0002 7.79935 30.0002C8.13058 30.0002 8.3992 29.7315 8.3992 29.4V25.8001C8.3992 25.4686 8.13058 25.2 7.79935 25.2C7.46783 25.2 7.19922 25.4686 7.19922 25.8001V29.4Z" fill="white"/>
<path d="M5.39993 30.0002C5.73117 30.0002 5.99979 29.7315 5.99979 29.4V25.8001C5.99979 25.4686 5.73117 25.2 5.39993 25.2C5.06842 25.2 4.7998 25.4686 4.7998 25.8001V29.4C4.7998 29.7315 5.06842 30.0002 5.39993 30.0002Z" fill="white"/>
<path d="M1.19998 30.0002H2.39996C3.06271 30.0002 3.59995 29.4629 3.59995 28.8002V26.3999C3.59995 25.7372 3.06271 25.2 2.39996 25.2H1.19998C0.537231 25.2 0 25.7372 0 26.3999V28.8002C0 29.4629 0.537231 30.0002 1.19998 30.0002ZM1.19998 26.3999H2.39996V28.8002H1.19998V26.3999Z" fill="white"/>
<path d="M34.7993 4.80005C35.1306 4.80005 35.3992 4.53143 35.3992 4.2002V0.60025C35.3992 0.268738 35.1306 0.00012207 34.7993 0.00012207C34.4678 0.00012207 34.1992 0.268738 34.1992 0.60025V4.2002C34.1992 4.53143 34.4678 4.80005 34.7993 4.80005Z" fill="white"/>
<path d="M32.3999 4.80005C32.7312 4.80005 32.9998 4.53143 32.9998 4.2002V0.60025C32.9998 0.268738 32.7312 0.00012207 32.3999 0.00012207C32.0684 0.00012207 31.7998 0.268738 31.7998 0.60025V4.2002C31.7998 4.53143 32.0684 4.80005 32.3999 4.80005Z" fill="white"/>
<path d="M25.2004 4.80005C25.532 4.80005 25.8006 4.53143 25.8006 4.2002V0.60025C25.8006 0.268738 25.532 0.00012207 25.2004 0.00012207C24.8692 0.00012207 24.6006 0.268738 24.6006 0.60025V4.2002C24.6006 4.53143 24.8692 4.80005 25.2004 4.80005Z" fill="white"/>
<path d="M28.2 4.80005H29.4C30.0627 4.80005 30.5999 4.26282 30.5999 3.60007V1.2001C30.5999 0.537354 30.0627 0.00012207 29.4 0.00012207H28.2C27.5372 0.00012207 27 0.537354 27 1.2001V3.60007C27 4.26282 27.5372 4.80005 28.2 4.80005ZM28.2 1.2001H29.4V3.60007H28.2V1.2001Z" fill="white"/>
<path d="M21.0008 4.80005H22.2007C22.8635 4.80005 23.4007 4.26282 23.4007 3.60007V1.2001C23.4007 0.537354 22.8635 0.00012207 22.2007 0.00012207H21.0008C20.338 0.00012207 19.8008 0.537354 19.8008 1.2001V3.60007C19.8008 4.26282 20.338 4.80005 21.0008 4.80005ZM21.0008 1.2001H22.2007V3.60007H21.0008V1.2001Z" fill="white"/>
<path d="M17.9995 4.80005C18.3308 4.80005 18.5997 4.53143 18.5997 4.2002V0.60025C18.5997 0.268738 18.3308 0.00012207 17.9995 0.00012207C17.6683 0.00012207 17.3994 0.268738 17.3994 0.60025V4.2002C17.3994 4.53143 17.6683 4.80005 17.9995 4.80005Z" fill="white"/>
<path d="M15.6001 4.80005C15.9314 4.80005 16.2 4.53143 16.2 4.2002V0.60025C16.2 0.268738 15.9314 0.00012207 15.6001 0.00012207C15.2686 0.00012207 15 0.268738 15 0.60025V4.2002C15 4.53143 15.2686 4.80005 15.6001 4.80005Z" fill="white"/>
<path d="M1.20044 4.80005C1.53195 4.80005 1.80057 4.53143 1.80057 4.2002V0.60025C1.80057 0.268738 1.53195 0.00012207 1.20044 0.00012207C0.869202 0.00012207 0.600586 0.268738 0.600586 0.60025V4.2002C0.600586 4.53143 0.869202 4.80005 1.20044 4.80005Z" fill="white"/>
<path d="M8.39966 4.80005C8.73117 4.80005 8.99979 4.53143 8.99979 4.2002V0.60025C8.99979 0.268738 8.73117 0.00012207 8.39966 0.00012207C8.06842 0.00012207 7.7998 0.268738 7.7998 0.60025V4.2002C7.7998 4.53143 8.06842 4.80005 8.39966 4.80005Z" fill="white"/>
<path d="M11.4002 4.80005H12.6002C13.2629 4.80005 13.8001 4.26282 13.8001 3.60007V1.2001C13.8001 0.537354 13.2629 0.00012207 12.6002 0.00012207H11.4002C10.7374 0.00012207 10.2002 0.537354 10.2002 1.2001V3.60007C10.2002 4.26282 10.7374 4.80005 11.4002 4.80005ZM11.4002 1.2001H12.6002V3.60007H11.4002V1.2001Z" fill="white"/>
<path d="M4.19998 4.80005H5.39996C6.06271 4.80005 6.59995 4.26282 6.59995 3.60007V1.2001C6.59995 0.537354 6.06271 0.00012207 5.39996 0.00012207H4.19998C3.53723 0.00012207 3 0.537354 3 1.2001V3.60007C3 4.26282 3.53723 4.80005 4.19998 4.80005ZM4.19998 1.2001H5.39996V3.60007H4.19998V1.2001Z" fill="white"/>
<path d="M0.600586 31.8V35.4C0.600586 35.7315 0.869202 36.0001 1.20044 36.0001C1.53195 36.0001 1.80057 35.7315 1.80057 35.4V31.8C1.80057 31.4688 1.53195 31.2002 1.20044 31.2002C0.869202 31.2002 0.600586 31.4688 0.600586 31.8Z" fill="white"/>
<path d="M3 31.8V35.4C3 35.7315 3.26862 36.0001 3.59985 36.0001C3.93137 36.0001 4.19998 35.7315 4.19998 35.4V31.8C4.19998 31.4688 3.93137 31.2002 3.59985 31.2002C3.26862 31.2002 3 31.4688 3 31.8Z" fill="white"/>
<path d="M10.2002 31.8V35.4C10.2002 35.7315 10.4688 36.0001 10.8003 36.0001C11.1316 36.0001 11.4002 35.7315 11.4002 35.4V31.8C11.4002 31.4688 11.1316 31.2002 10.8003 31.2002C10.4688 31.2002 10.2002 31.4688 10.2002 31.8Z" fill="white"/>
<path d="M6.60037 36.0001H7.80035C8.4631 36.0001 9.00034 35.4629 9.00034 34.8001V32.4002C9.00034 31.7374 8.4631 31.2002 7.80035 31.2002H6.60037C5.93762 31.2002 5.40039 31.7374 5.40039 32.4002V34.8001C5.40039 35.4629 5.93762 36.0001 6.60037 36.0001ZM6.60037 32.4002H7.80035V34.8001H6.60037V32.4002Z" fill="white"/>
<path d="M13.7996 31.2002C13.1368 31.2002 12.5996 31.7374 12.5996 32.4002V34.8001C12.5996 35.4629 13.1368 36.0001 13.7996 36.0001H14.9996C15.6623 36.0001 16.1996 35.4629 16.1996 34.8001V32.4002C16.1996 31.7374 15.6623 31.2002 14.9996 31.2002H13.7996ZM13.7996 34.8001V32.4002H14.9996V34.8001H13.7996Z" fill="white"/>
<path d="M17.3994 31.8V35.4C17.3994 35.7315 17.6683 36.0001 17.9995 36.0001C18.3308 36.0001 18.5997 35.7315 18.5997 35.4V31.8C18.5997 31.4688 18.3308 31.2002 17.9995 31.2002C17.6683 31.2002 17.3994 31.4688 17.3994 31.8Z" fill="white"/>
<path d="M19.8008 31.8V35.4C19.8008 35.7315 20.0694 36.0001 20.4006 36.0001C20.7321 36.0001 21.0008 35.7315 21.0008 35.4V31.8C21.0008 31.4688 20.7321 31.2002 20.4006 31.2002C20.0694 31.2002 19.8008 31.4688 19.8008 31.8Z" fill="white"/>
<path d="M35.3992 35.4V31.8C35.3992 31.4688 35.1306 31.2002 34.7993 31.2002C34.4678 31.2002 34.1992 31.4688 34.1992 31.8V35.4C34.1992 35.7315 34.4678 36.0001 34.7993 36.0001C35.1306 36.0001 35.3992 35.7315 35.3992 35.4Z" fill="white"/>
<path d="M27.6001 36.0001C27.9314 36.0001 28.2 35.7315 28.2 35.4V31.8C28.2 31.4688 27.9314 31.2002 27.6001 31.2002C27.2686 31.2002 27 31.4688 27 31.8V35.4C27 35.7315 27.2686 36.0001 27.6001 36.0001Z" fill="white"/>
<path d="M23.4002 31.2002C22.7374 31.2002 22.2002 31.7374 22.2002 32.4002V34.8001C22.2002 35.4629 22.7374 36.0001 23.4002 36.0001H24.6002C25.2629 36.0001 25.8001 35.4629 25.8001 34.8001V32.4002C25.8001 31.7374 25.2629 31.2002 24.6002 31.2002H23.4002ZM23.4002 34.8001V32.4002H24.6002V34.8001H23.4002Z" fill="white"/>
<path d="M30.5994 36.0001H31.7994C32.4621 36.0001 32.9994 35.4629 32.9994 34.8001V32.4002C32.9994 31.7374 32.4621 31.2002 31.7994 31.2002H30.5994C29.9366 31.2002 29.3994 31.7374 29.3994 32.4002V34.8001C29.3994 35.4629 29.9366 36.0001 30.5994 36.0001ZM30.5994 32.4002H31.7994V34.8001H30.5994V32.4002Z" fill="white"/>
</g>
<defs>
<clipPath id="clip0_535_1298">
<rect width="36" height="36" fill="white"/>
</clipPath>
</defs>
</svg>
