<svg width="36" height="36" viewBox="0 0 36 36" fill="none" xmlns="http://www.w3.org/2000/svg">
<path d="M34.6741 21.8101L33.4324 21.0931C33.6409 20.0559 33.7464 19.0173 33.7464 18.0002C33.7464 16.9684 33.6426 15.9288 33.4376 14.9042L34.6741 14.1903C35.0571 13.9692 35.3311 13.6122 35.4455 13.1851C35.5599 12.7579 35.5012 12.3118 35.2801 11.9288L31.8985 6.07163C31.6773 5.68867 31.3203 5.41469 30.8932 5.30028C30.466 5.18586 30.0199 5.24455 29.6369 5.46569L28.3993 6.1802C26.8361 4.80494 24.9964 3.74058 23.038 3.07835V1.65582C23.038 0.742929 22.2953 0.000244141 21.3824 0.000244141H14.6192C13.7063 0.000244141 12.9637 0.742929 12.9637 1.65582V3.07842C11.0157 3.73797 9.17852 4.80374 7.60952 6.18442L6.36474 5.46569C5.9817 5.24455 5.53554 5.18579 5.1084 5.30028C4.68126 5.41476 4.32429 5.68867 4.10315 6.07163L0.721547 11.9288C0.500404 12.3118 0.441719 12.7579 0.55613 13.1851C0.670541 13.6122 0.944521 13.9692 1.32749 14.1903L2.56924 14.9073C2.36085 15.9445 2.25525 16.9832 2.25525 18.0002C2.25525 19.0319 2.35909 20.0715 2.5641 21.0962L1.32756 21.8101C0.536968 22.2666 0.265171 23.281 0.721547 24.0717L4.10315 29.9289C4.5596 30.7194 5.57408 30.9912 6.36474 30.5348L7.6022 29.8203C9.16548 31.1955 11.0051 32.2599 12.9637 32.9222V34.3447C12.9637 35.2576 13.7063 36.0002 14.6192 36.0002H21.3824C22.2953 36.0002 23.038 35.2576 23.038 34.3447V32.9221C24.986 32.2625 26.8232 31.1967 28.3922 29.8161L29.6369 30.5348C30.4275 30.9912 31.4421 30.7194 31.8985 29.9289L35.2801 24.0717C35.7365 23.281 35.4647 22.2666 34.6741 21.8101ZM34.3649 23.5433L30.9833 29.4004C30.8183 29.6864 30.4513 29.7847 30.1653 29.6196L28.5878 28.7088C28.3874 28.5931 28.1348 28.6213 27.9649 28.7785C26.3521 30.2701 24.4116 31.3956 22.3533 32.0332C22.1321 32.1017 21.9813 32.3063 21.9813 32.5379V34.3447C21.9813 34.6749 21.7126 34.9435 21.3824 34.9435H14.6192C14.289 34.9435 14.0204 34.6749 14.0204 34.3447V32.538C14.0204 32.3064 13.8696 32.1018 13.6484 32.0333C11.5775 31.3917 9.63461 30.2676 8.02969 28.7828C7.92958 28.6901 7.80072 28.6422 7.67074 28.6422C7.58015 28.6422 7.48905 28.6655 7.4067 28.713L5.83636 29.6196C5.55034 29.7846 5.18343 29.6864 5.01837 29.4004L1.63676 23.5433C1.4717 23.2574 1.57005 22.8904 1.85593 22.7253L3.425 21.8193C3.62536 21.7037 3.72716 21.4712 3.67622 21.2455C3.43451 20.1741 3.312 19.0822 3.312 18.0002C3.312 16.9364 3.43634 15.8456 3.68165 14.758C3.73251 14.5323 3.63071 14.2998 3.43042 14.1842L1.85593 13.2752C1.71743 13.1952 1.61838 13.0661 1.57695 12.9116C1.5356 12.7571 1.5568 12.5957 1.63676 12.4572L5.01837 6.60001C5.09833 6.4615 5.22746 6.36238 5.38203 6.32103C5.53646 6.2796 5.69793 6.30088 5.83644 6.38084L7.41395 7.29162C7.61445 7.40744 7.86695 7.37912 8.03687 7.22194C9.64976 5.7303 11.5902 4.60486 13.6484 3.96722C13.8696 3.89867 14.0205 3.69408 14.0205 3.46251V1.65582C14.0205 1.32562 14.2891 1.057 14.6193 1.057H21.3825C21.7127 1.057 21.9813 1.32562 21.9813 1.65582V3.46251C21.9813 3.69408 22.1322 3.89867 22.3533 3.96722C24.4242 4.60874 26.3671 5.73277 27.9721 7.21772C28.142 7.37496 28.3946 7.40321 28.5951 7.28746L30.1654 6.38084C30.304 6.30088 30.4654 6.2796 30.6198 6.32103C30.7743 6.36245 30.9034 6.4615 30.9835 6.60001L34.3651 12.4572C34.445 12.5957 34.4663 12.7571 34.4249 12.9116C34.3834 13.0661 34.2844 13.1952 34.1459 13.2752L32.5768 14.1811C32.3765 14.2968 32.2747 14.5293 32.3256 14.755C32.5673 15.8262 32.6898 16.9181 32.6898 18.0002C32.6898 19.064 32.5655 20.1549 32.3202 21.2424C32.2693 21.4681 32.3711 21.7006 32.5714 21.8162L34.1459 22.7253C34.4317 22.8904 34.5301 23.2574 34.3649 23.5433Z" fill="white"/>
<path d="M18.0013 7.32703C12.1161 7.32703 7.32812 12.115 7.32812 18.0002C7.32812 23.8854 12.1161 28.6734 18.0013 28.6734C23.8866 28.6734 28.6745 23.8854 28.6745 18.0002C28.6745 12.115 23.8866 7.32703 18.0013 7.32703ZM18.0013 27.6167C12.6988 27.6167 8.38488 23.3027 8.38488 18.0002C8.38488 12.6977 12.6988 8.38378 18.0013 8.38378C23.3038 8.38378 27.6178 12.6977 27.6178 18.0002C27.6178 23.3027 23.3038 27.6167 18.0013 27.6167Z" fill="white"/>
<path d="M19.9727 15.2174H18.0001C17.7083 15.2174 17.4717 15.454 17.4717 15.7458V20.2546C17.4717 20.5464 17.7083 20.783 18.0001 20.783C18.2919 20.783 18.5284 20.5464 18.5284 20.2546V19.0922H19.9727C21.041 19.0922 21.91 18.2231 21.91 17.1548C21.91 16.0865 21.041 15.2174 19.9727 15.2174ZM19.9727 18.0354H18.5284V16.2742H19.9727C20.4583 16.2742 20.8533 16.6692 20.8533 17.1548C20.8533 17.6404 20.4583 18.0354 19.9727 18.0354Z" fill="white"/>
<path d="M15.1145 15.5603C15.0372 15.3541 14.84 15.2174 14.6198 15.2174H14.0562C13.836 15.2174 13.6388 15.354 13.5615 15.5603L11.8707 20.0691C11.7682 20.3423 11.9067 20.6469 12.1799 20.7494C12.4531 20.8519 12.7577 20.7134 12.8602 20.4402L13.1542 19.6558H15.5217L15.8158 20.4401C15.8954 20.6522 16.0967 20.7831 16.3106 20.7831C16.3723 20.7831 16.435 20.7723 16.496 20.7494C16.7693 20.6469 16.9078 20.3423 16.8052 20.0691L15.1145 15.5603ZM13.5505 18.599L14.338 16.4991L15.1255 18.599H13.5505Z" fill="white"/>
<path d="M23.0733 15.2174C22.7815 15.2174 22.5449 15.454 22.5449 15.7458V20.2546C22.5449 20.5464 22.7815 20.783 23.0733 20.783C23.3651 20.783 23.6017 20.5464 23.6017 20.2546V15.7458C23.6017 15.454 23.3651 15.2174 23.0733 15.2174Z" fill="white"/>
<path d="M21.7802 6.15055C22.1469 6.26743 22.5125 6.40318 22.8666 6.55395C22.9341 6.58269 23.0043 6.59629 23.0733 6.59629C23.2787 6.59629 23.4742 6.47568 23.5597 6.27475C23.674 6.00627 23.549 5.69594 23.2805 5.58167C22.896 5.41801 22.4992 5.27063 22.101 5.14375C21.8231 5.05512 21.5258 5.2087 21.4372 5.4867C21.3486 5.7647 21.5022 6.06192 21.7802 6.15055Z" fill="white"/>
<path d="M7.07729 23.9464C6.93752 23.6903 6.61648 23.5959 6.36039 23.7357C6.10423 23.8754 6.00983 24.1964 6.1496 24.4526C6.36884 24.8544 6.61154 25.2497 6.87094 25.6275C6.97338 25.7766 7.13872 25.8568 7.30696 25.8568C7.41003 25.8568 7.51415 25.8267 7.60559 25.7639C7.84618 25.5987 7.90726 25.2698 7.74206 25.0293C7.50302 24.6811 7.27934 24.3168 7.07729 23.9464Z" fill="white"/>
<path d="M16.9195 30.3882C14.0881 30.1442 11.4006 28.9173 9.35199 26.9332C9.14233 26.7302 8.80784 26.7356 8.60487 26.9452C8.4019 27.1549 8.40719 27.4894 8.61685 27.6923C10.8395 29.8449 13.756 31.1762 16.8287 31.441C16.8441 31.4423 16.8594 31.443 16.8747 31.443C17.146 31.443 17.3768 31.2352 17.4005 30.96C17.4255 30.6693 17.2101 30.4133 16.9195 30.3882Z" fill="white"/>
<path d="M25.6049 6.85414C25.3639 6.6895 25.0351 6.75136 24.8705 6.99223C24.7059 7.23316 24.7677 7.56195 25.0086 7.7266C27.4633 9.40422 29.239 11.9006 30.0086 14.7558C30.0721 14.9916 30.2854 15.1468 30.5184 15.1468C30.5639 15.1468 30.6102 15.1409 30.6562 15.1285C30.938 15.0526 31.1048 14.7626 31.0289 14.4809C30.1939 11.3825 28.2676 8.67394 25.6049 6.85414Z" fill="white"/>
</svg>
