<svg width="34" height="34" viewBox="0 0 34 34" fill="none" xmlns="http://www.w3.org/2000/svg">
<path d="M29.039 24.2968C26.3946 24.2968 24.2432 26.4514 24.2432 29.0998C24.2432 31.7482 26.3946 33.9027 29.039 33.9027C31.6835 33.9027 33.8349 31.7482 33.8349 29.0998C33.8349 26.4514 31.6835 24.2968 29.039 24.2968ZM29.039 33.059C26.8598 33.059 25.0869 31.2829 25.0869 29.0998C25.0869 26.9167 26.8598 25.1405 29.039 25.1405C31.2183 25.1405 32.9912 26.9166 32.9912 29.0998C32.9912 31.283 31.2182 33.059 29.039 33.059Z" fill="white"/>
<path d="M1.00879 7.98551V2.93243C1.00879 1.83443 1.89698 0.94104 2.98879 0.94104H8.0181C8.57596 0.94104 8.57666 0.09729 8.0181 0.09729H2.98879C1.43179 0.09729 0.165039 1.3691 0.165039 2.93243V7.98551C0.165039 8.54351 1.00879 8.54407 1.00879 7.98551Z" fill="white"/>
<path d="M8.0181 26.9366H2.98879C1.89698 26.9366 1.00879 26.0432 1.00879 24.9452V19.8918C1.00879 19.3342 0.165039 19.333 0.165039 19.8918V24.9452C0.165039 26.5086 1.43179 27.7804 2.98879 27.7804H8.0181C8.57596 27.7804 8.57666 26.9366 8.0181 26.9366Z" fill="white"/>
<path d="M19.8678 0.941059H24.8975C25.9893 0.941059 26.8776 1.83445 26.8776 2.93245V7.98553C26.8776 8.54339 27.7214 8.54409 27.7214 7.98553V2.93231C27.7214 1.36898 26.4546 0.097168 24.8975 0.097168H19.8678C19.3101 0.0973086 19.3093 0.941059 19.8678 0.941059Z" fill="white"/>
<path d="M22.4007 26.9363H19.8679C19.31 26.9363 19.3093 27.78 19.8679 27.78H22.4007C22.9585 27.78 22.9592 26.9363 22.4007 26.9363Z" fill="white"/>
<path d="M26.8789 19.8916V22.4522C26.8789 23.0101 27.7227 23.0108 27.7227 22.4522V19.8916C27.7227 19.3338 26.8789 19.3329 26.8789 19.8916Z" fill="white"/>
<path d="M18.4711 19.3958C17.4921 19.3958 16.8941 18.8486 16.6904 17.7707C17.2706 17.2358 17.7592 16.5881 18.1205 15.8652C19.2234 13.6631 18.8637 13.5905 19.1627 13.426L19.1617 13.4241C20.0118 13.0298 19.7269 12.046 19.779 11.8238C19.779 11.3208 19.6864 11.1404 19.4316 10.9934C19.8186 9.88432 19.7383 8.56385 19.1928 7.3016C17.6417 3.71172 12.7401 1.89752 10.9772 5.28447C10.1967 5.22555 9.03909 5.52016 8.64225 6.9918C8.24245 8.47427 8.43609 10.2848 8.5365 10.9874C8.29912 11.1788 8.10886 11.4891 8.10886 11.8282C8.16215 12.0549 7.87823 13.0312 8.72606 13.4244L8.72508 13.4264C9.02573 13.5912 9.29334 16.0143 11.1977 17.7711C10.9939 18.8489 10.396 19.3959 9.41709 19.3959C5.77322 19.3959 4.03003 21.4618 4.2269 23.9929C4.25278 24.5609 5.11411 24.5034 5.06784 23.925C5.04815 23.6778 4.995 22.3959 5.88417 21.433C6.41292 20.8604 7.18214 20.4931 8.17678 20.3329C8.703 20.9221 10.5054 22.6024 13.9441 22.6024C17.3828 22.6024 19.1853 20.9221 19.7114 20.3329C20.706 20.4931 21.4751 20.8604 22.004 21.433C22.8932 22.3959 22.8399 23.6778 22.8203 23.925C22.7742 24.5034 23.6354 24.5609 23.6613 23.9929C23.8499 21.5693 22.2408 19.3958 18.4711 19.3958ZM9.45689 7.21146C9.70256 6.30049 10.4292 5.99561 11.1284 6.1586C11.342 6.21119 11.5602 6.09068 11.6295 5.88185C12.5049 3.24541 16.9117 4.14893 18.4184 7.63628C18.8096 8.54177 18.9228 9.47214 18.7545 10.2886C18.4648 9.88418 18.0752 9.3446 17.6729 8.80207C16.7432 7.54825 15.0757 7.09811 13.7081 7.73163C13.4473 7.85243 13.1628 7.84877 12.9275 7.72164C12.0577 7.25182 11.2375 7.23241 10.5553 7.66525C9.98409 8.02849 9.43298 8.95647 9.46153 9.95294C9.46645 10.1269 9.4192 10.2836 9.31809 10.425C9.23358 9.62627 9.16439 8.29582 9.45689 7.21146ZM10.5218 15.4874C9.38672 13.2209 9.8737 13.0939 9.13078 12.6866C9.04415 12.6392 8.95247 12.5663 8.95247 12.4694C8.95247 11.5594 8.90859 11.7701 9.22781 11.5614C9.24075 11.5468 10.3372 11.0666 10.3047 9.92904C10.2791 9.03241 10.9462 7.61069 12.5263 8.46414C12.998 8.71896 13.5579 8.73105 14.0626 8.49733C15.0692 8.03116 16.3025 8.37063 16.9952 9.30466C19.0593 12.0883 18.3676 11.3761 18.9346 11.6836C18.936 11.7475 18.9354 11.8998 18.9354 12.4694C18.9354 12.7178 18.3322 12.7311 18.1801 13.4656C18.0938 13.89 17.7972 14.6269 17.3661 15.4877C16.9564 16.3069 16.3628 17.0163 15.6493 17.5388C15.2073 17.8627 15.1113 17.8617 14.3633 17.8538C12.8032 17.8375 12.804 17.9531 12.2387 17.5387C11.5252 17.0163 10.9316 16.3069 10.5218 15.4874ZM13.9439 21.7586C11.5436 21.7586 10.0512 20.8692 9.29629 20.2413C10.7076 20.2245 11.5473 19.5749 11.9223 18.3456C12.4698 18.7045 12.8045 18.7052 13.5332 18.6974C14.9438 18.6825 15.284 18.7945 15.9654 18.3457C16.3351 19.5572 17.2214 20.2394 18.471 20.2394C18.5093 20.2394 18.5465 20.2406 18.5843 20.2412C17.8237 20.8685 16.325 21.7586 13.9439 21.7586Z" fill="white"/>
</svg>
