<svg width="110" height="110" viewBox="0 0 110 110" fill="none" xmlns="http://www.w3.org/2000/svg">
<path d="M110 0V22.9167H87.0833V13.75H94.6183C91.3367 10.8488 87.0879 9.16667 82.5 9.16667C73.9796 9.16667 66.8663 15.0333 64.8175 22.9167H55.4125C57.6033 9.93208 68.8967 0 82.5 0C89.4575 0 95.8925 2.585 100.833 7.03083V0H110ZM82.5 45.8333C77.9442 45.8333 73.6588 44.1467 70.3725 41.25H77.9167V32.0833H55V55H64.1667V47.9829C69.1167 52.4104 75.5975 55 82.5 55C96.0988 55 107.392 45.0679 109.588 32.0833H100.183C98.1338 39.9667 91.0204 45.8333 82.5 45.8333ZM68.75 61.4763C71.6421 62.6496 74.7129 63.4517 77.9167 63.8504V90.6858C77.9167 103.368 58.3183 110 38.9583 110C19.5983 110 0 103.368 0 90.6858V20.625C0 19.745 0.582083 17.0225 0.582083 17.0225C3.62542 7.10875 19.085 0 38.9583 0C45.2283 0 51.0354 0.72875 56.1779 2.0075C53.8404 4.41833 51.8192 7.14083 50.2104 10.12C46.8279 9.52875 43.0696 9.16667 38.9583 9.16667C20.7717 9.16667 9.16667 15.95 9.16667 20.625C9.16667 25.3 20.7717 32.0833 38.9583 32.0833C41.3783 32.0833 43.6562 31.9413 45.8333 31.7213V40.9063C43.6058 41.1079 41.3325 41.25 38.9583 41.25C26.7438 41.25 16.2021 38.555 9.16667 34.1871V43.5417C9.16667 48.2167 20.7717 55 38.9583 55C41.3738 55 43.6608 54.8717 45.8333 54.6563V63.855C43.6058 64.0475 41.3233 64.1713 38.9583 64.1713C26.7438 64.1713 16.2021 61.4763 9.16667 57.1083V66.4629C9.16667 71.1379 20.7717 77.9212 38.9583 77.9212C57.145 77.9212 68.75 71.1379 68.75 66.4629V61.4763ZM68.75 90.6858V80.0204C61.7146 84.3929 51.1729 87.0833 38.9583 87.0833C26.7438 87.0833 16.2021 84.3883 9.16667 80.0204V90.6858C9.16667 94.1279 19.6808 100.833 38.9583 100.833C58.2358 100.833 68.75 94.1279 68.75 90.6858Z" fill="#3C0F3C"/>
</svg>
