<svg width="28.000000" height="28.000000" viewBox="0 0 28 28" fill="none" xmlns="http://www.w3.org/2000/svg" xmlns:xlink="http://www.w3.org/1999/xlink">
	<desc>
			Created with Pixso.
	</desc>
	<defs/>
	<path id="Vector" d="M3.5 25.66L8.16 25.66L8.16 28L3.5 28C1.57 28 0 26.42 0 24.5L0 19.83L2.33 19.83L2.33 24.5C2.33 25.14 2.85 25.66 3.5 25.66ZM25.66 24.5C25.66 25.14 25.14 25.66 24.5 25.66L19.83 25.66L19.83 28L24.5 28C26.42 28 28 26.42 28 24.5L28 19.83L25.66 19.83L25.66 24.5ZM24.5 0L19.83 0L19.83 2.33L24.5 2.33C25.14 2.33 25.66 2.85 25.66 3.5L25.66 8.16L28 8.16L28 3.5C28 1.57 26.42 0 24.5 0ZM2.33 3.5C2.33 2.85 2.85 2.33 3.5 2.33L8.16 2.33L8.16 0L3.5 0C1.57 0 0 1.57 0 3.5L0 8.16L2.33 8.16L2.33 3.5ZM16.09 10.25L14 12.35L11.9 10.25L10.25 11.9L12.35 14L10.25 16.09L11.9 17.74L14 15.64L16.09 17.74L17.74 16.09L15.64 14L17.74 11.9L16.09 10.25ZM21.24 17.74L23.33 15.64L25.42 17.74L27.07 16.09L24.98 14L27.07 11.9L25.42 10.25L23.33 12.35L21.24 10.25L19.59 11.9L21.68 14L19.59 16.09L21.24 17.74ZM6.75 10.25L4.66 12.35L2.57 10.25L0.92 11.9L3.01 14L0.92 16.09L2.57 17.74L4.66 15.64L6.75 17.74L8.4 16.09L6.31 14L8.4 11.9L6.75 10.25Z" fill="#FFFFFF" fill-opacity="1.000000" fill-rule="nonzero"/>
</svg>
