<svg width="18.000000" height="13.500000" viewBox="0 0 18 13.5" fill="none" xmlns="http://www.w3.org/2000/svg" xmlns:xlink="http://www.w3.org/1999/xlink">
	<desc>
			Created with Pixso.
	</desc>
	<defs/>
	<path id="Vector" d="M1.68 0L16.31 0C17.22 0 18 0.77 18 1.68C18 2.25 17.71 2.74 17.29 3.05L9.66 8.78C9.24 9.1 8.71 9.1 8.29 8.78L0.66 3.05C0.24 2.74 0 2.25 0 1.68C0 0.77 0.73 0 1.68 0ZM0 3.93L7.62 9.7C8.43 10.3 9.52 10.3 10.33 9.7L18 3.93L18 11.25C18 12.51 16.98 13.5 15.75 13.5L2.25 13.5C0.98 13.5 0 12.51 0 11.25L0 3.93Z" fill="#408077" fill-opacity="1.000000" fill-rule="evenodd"/>
</svg>
