<svg width="60.000000" height="60.000000" viewBox="0 0 60 60" fill="none" xmlns="http://www.w3.org/2000/svg" xmlns:xlink="http://www.w3.org/1999/xlink">
	<desc>
			Created with Pixso.
	</desc>
	<defs/>
	<g style="mix-blend-mode:normal">
		<path id="Vector" d="M20.66 5.53C22.35 5.13 24.11 5.43 25.83 5.34C27.71 5.34 29.87 4.89 31.46 6.2C34.86 8.57 34.79 14.29 31.44 16.67C29.7 17.89 27.46 17.59 25.46 17.64C23.4 17.56 21.19 17.83 19.29 16.86C17.25 15.74 16.45 13.26 16.57 11.05C16.55 8.58 18.3 6.24 20.66 5.53Z" fill="#408077" fill-opacity="1.000000" fill-rule="nonzero"/>
		<path id="Vector" d="M25.83 5.34C27.71 5.34 29.87 4.89 31.46 6.2C34.86 8.57 34.79 14.29 31.44 16.67C29.7 17.89 27.46 17.59 25.46 17.64C23.4 17.56 21.19 17.83 19.29 16.86C17.25 15.74 16.45 13.26 16.57 11.05C16.55 8.58 18.3 6.24 20.66 5.53C22.35 5.13 24.11 5.43 25.83 5.34Z" stroke="#408077" stroke-opacity="1.000000" stroke-width="0.210450"/>
		<path id="Vector" d="M20.67 20.03C22.89 19.76 25.13 19.94 27.36 19.84C29.09 19.75 31.02 19.97 32.25 21.35C34.82 23.88 34.69 28.49 32 30.88C30.37 32.48 27.94 32.34 25.83 32.42C23.93 32.4 21.94 32.65 20.13 31.92C16.79 30.33 15.62 25.77 17.24 22.57C17.96 21.3 19.23 20.3 20.67 20.03Z" fill="#408077" fill-opacity="1.000000" fill-rule="nonzero"/>
		<path id="Vector" d="M27.36 19.84C29.09 19.75 31.02 19.97 32.25 21.35C34.82 23.88 34.69 28.49 32 30.88C30.37 32.48 27.94 32.34 25.83 32.42C23.93 32.4 21.94 32.65 20.13 31.92C16.79 30.33 15.62 25.77 17.24 22.57C17.96 21.3 19.23 20.3 20.67 20.03C22.89 19.76 25.13 19.94 27.36 19.84Z" stroke="#408077" stroke-opacity="1.000000" stroke-width="0.210450"/>
		<path id="Vector" d="M20.29 34.77C22.22 34.25 24.24 34.51 26.21 34.45C28.25 34.43 30.58 34.33 32.16 35.87C35.56 38.87 34.33 45.24 30.09 46.81C27.62 47.58 24.97 47.17 22.42 47.26C20.47 47.39 18.64 46.32 17.62 44.7C15.34 41.53 16.19 35.97 20.29 34.77L20.29 34.77Z" fill="#408077" fill-opacity="1.000000" fill-rule="nonzero"/>
		<path id="Vector" d="M26.21 34.45C28.25 34.43 30.58 34.33 32.16 35.87C35.56 38.87 34.33 45.24 30.09 46.81C27.62 47.58 24.97 47.17 22.42 47.26C20.47 47.39 18.64 46.32 17.62 44.7C15.34 41.53 16.19 35.97 20.29 34.77L20.29 34.77C22.22 34.25 24.24 34.51 26.21 34.45Z" stroke="#408077" stroke-opacity="1.000000" stroke-width="0.210450"/>
		<path id="Vector" d="M39.64 21.43C41.47 20.99 42.82 22.79 43.3 24.33C43.9 26.65 43.74 29.53 41.83 31.22C40.99 32.03 39.52 32.09 38.71 31.2C36.89 29.36 36.39 26.41 37.28 24.01C37.74 22.94 38.47 21.81 39.64 21.43Z" fill="#408077" fill-opacity="1.000000" fill-rule="nonzero"/>
		<path id="Vector" d="M43.3 24.33C43.9 26.65 43.74 29.53 41.83 31.22C40.99 32.03 39.52 32.09 38.71 31.2C36.89 29.36 36.39 26.41 37.28 24.01C37.74 22.94 38.47 21.81 39.64 21.43C41.47 20.99 42.82 22.79 43.3 24.33Z" stroke="#408077" stroke-opacity="1.000000" stroke-width="0.210450"/>
		<path id="Vector" d="M40.02 35.89C41.39 35.57 42.44 36.88 42.95 37.98C43.81 40.07 43.92 42.65 42.69 44.62C41.99 45.83 40.23 46.61 38.99 45.74C35.8 43.36 36.36 37.48 40.02 35.89Z" fill="#408077" fill-opacity="1.000000" fill-rule="nonzero"/>
		<path id="Vector" d="M42.95 37.98C43.81 40.07 43.92 42.65 42.69 44.62C41.99 45.83 40.23 46.61 38.99 45.74C35.8 43.36 36.36 37.48 40.02 35.89C41.39 35.57 42.44 36.88 42.95 37.98Z" stroke="#408077" stroke-opacity="1.000000" stroke-width="0.210450"/>
		<path id="Vector" d="M7.71 49.89L7.56 51.07C7.35 50.93 7.14 50.82 6.91 50.75C6.69 50.69 6.48 50.65 6.28 50.65C6.1 50.65 5.94 50.69 5.81 50.76C5.69 50.84 5.63 50.95 5.63 51.1C5.63 51.27 5.71 51.39 5.87 51.48C6.04 51.58 6.26 51.67 6.55 51.77C6.78 51.85 7.01 51.95 7.22 52.06C7.43 52.18 7.6 52.34 7.73 52.53C7.86 52.72 7.93 52.97 7.93 53.29C7.93 53.72 7.78 54.07 7.48 54.33C7.18 54.59 6.75 54.72 6.17 54.72C5.81 54.72 5.49 54.69 5.23 54.64C4.96 54.59 4.74 54.53 4.56 54.46L4.56 53.16C4.79 53.35 5.03 53.5 5.27 53.61C5.51 53.73 5.8 53.78 6.12 53.78C6.32 53.78 6.47 53.74 6.6 53.67C6.72 53.59 6.78 53.49 6.78 53.36C6.78 53.19 6.69 53.05 6.5 52.94C6.32 52.82 6.08 52.72 5.77 52.61C5.37 52.48 5.06 52.29 4.83 52.05C4.61 51.81 4.49 51.49 4.49 51.08C4.49 50.66 4.65 50.31 4.96 50.06C5.27 49.8 5.72 49.67 6.31 49.67C6.55 49.67 6.78 49.69 6.99 49.72C7.2 49.76 7.38 49.79 7.51 49.83C7.64 49.87 7.71 49.89 7.71 49.89ZM8.87 50.85L8.87 49.74L13.17 49.74L13.17 50.85C13.08 50.8 12.97 50.77 12.81 50.74C12.66 50.72 12.51 50.7 12.34 50.69C12.18 50.67 12.04 50.67 11.92 50.67L11.58 50.67L11.58 54.65L10.46 54.65L10.46 50.67L10.13 50.67C10 50.67 9.86 50.67 9.7 50.69C9.53 50.7 9.38 50.72 9.23 50.74C9.08 50.77 8.96 50.8 8.87 50.85ZM17.21 52.71L18.46 54.65L17.14 54.65L16.12 53C16.07 53 16.01 53.01 15.95 53.01C15.89 53.01 15.82 53.01 15.75 53.01L15.68 53.01C15.66 53.01 15.64 53.01 15.61 53.01L15.61 54.65L14.51 54.65L14.51 49.75C14.75 49.73 15 49.72 15.26 49.72C15.52 49.71 15.81 49.71 16.14 49.71C16.77 49.71 17.26 49.83 17.6 50.07C17.94 50.32 18.11 50.72 18.11 51.28C18.11 51.54 18.07 51.76 17.98 51.95C17.89 52.14 17.78 52.29 17.64 52.42C17.51 52.54 17.36 52.64 17.21 52.71ZM15.61 50.65L15.61 52.04C15.68 52.05 15.75 52.05 15.81 52.05L16.01 52.05C16.32 52.05 16.55 51.99 16.72 51.87C16.89 51.75 16.97 51.55 16.97 51.28C16.97 50.85 16.68 50.64 16.09 50.64L15.82 50.64C15.75 50.64 15.68 50.64 15.61 50.65ZM19.59 52.14C19.59 51.63 19.68 51.19 19.86 50.81C20.05 50.44 20.31 50.15 20.64 49.95C20.98 49.74 21.37 49.64 21.83 49.64C22.37 49.64 22.8 49.74 23.11 49.95C23.43 50.15 23.65 50.44 23.79 50.81C23.92 51.19 23.99 51.63 23.99 52.14C23.99 52.63 23.91 53.07 23.76 53.47C23.61 53.86 23.37 54.16 23.05 54.39C22.72 54.61 22.3 54.72 21.78 54.72C21.25 54.72 20.83 54.61 20.51 54.39C20.19 54.17 19.95 53.87 19.81 53.48C19.66 53.09 19.59 52.65 19.59 52.14ZM20.7 52.12C20.7 52.44 20.73 52.73 20.8 52.98C20.88 53.23 20.99 53.43 21.15 53.57C21.31 53.72 21.53 53.79 21.8 53.79C22.06 53.79 22.27 53.72 22.43 53.58C22.59 53.44 22.7 53.25 22.77 53C22.84 52.75 22.88 52.48 22.88 52.16C22.88 51.68 22.79 51.3 22.63 51.01C22.46 50.73 22.18 50.58 21.79 50.58C21.55 50.58 21.35 50.65 21.19 50.78C21.03 50.91 20.9 51.09 20.82 51.32C20.74 51.56 20.7 51.82 20.7 52.12ZM29.74 49.75L29.74 54.65L28.76 54.65L26.72 51.6L26.69 51.6L26.77 52.54L26.77 54.65L25.68 54.65L25.68 49.75L26.75 49.75L28.68 52.81L28.71 52.81L28.65 52.01L28.65 49.75L29.74 49.75ZM33.61 51.91L35.66 51.91L35.66 54.32C35.45 54.42 35.2 54.51 34.89 54.59C34.59 54.68 34.24 54.72 33.85 54.72C33.09 54.72 32.5 54.51 32.07 54.09C31.65 53.68 31.44 53.07 31.44 52.26C31.44 51.75 31.53 51.3 31.73 50.91C31.93 50.52 32.22 50.21 32.61 49.99C32.99 49.77 33.47 49.66 34.03 49.66C34.33 49.66 34.6 49.68 34.85 49.74C35.09 49.8 35.33 49.87 35.55 49.96L35.4 51.2C35.2 50.98 34.97 50.83 34.71 50.75C34.46 50.68 34.22 50.64 34.01 50.64C33.55 50.64 33.2 50.77 32.94 51.05C32.69 51.32 32.56 51.72 32.56 52.24C32.56 52.77 32.68 53.16 32.91 53.42C33.15 53.67 33.5 53.8 33.97 53.8C34.09 53.8 34.2 53.79 34.31 53.77C34.41 53.75 34.51 53.73 34.6 53.7L34.6 52.84C34.42 52.85 34.24 52.86 34.05 52.89C33.86 52.91 33.72 52.93 33.61 52.94L33.61 51.91ZM38.67 53.17L38.67 54.65L37.57 54.65L37.57 49.75C37.83 49.74 38.08 49.73 38.33 49.72C38.58 49.7 38.85 49.7 39.16 49.7C39.78 49.7 40.25 49.83 40.58 50.09C40.92 50.35 41.08 50.78 41.08 51.4C41.08 51.73 41.03 52.01 40.92 52.24C40.81 52.47 40.67 52.65 40.48 52.79C40.3 52.93 40.09 53.03 39.87 53.09C39.64 53.15 39.41 53.18 39.17 53.18C39.04 53.18 38.94 53.18 38.88 53.18C38.82 53.18 38.75 53.17 38.67 53.17ZM39.08 50.64L38.86 50.64C38.8 50.64 38.73 50.64 38.67 50.65L38.67 52.18C38.74 52.19 38.8 52.19 38.86 52.2C38.92 52.2 38.99 52.2 39.08 52.2C39.37 52.2 39.59 52.14 39.75 52C39.9 51.86 39.97 51.66 39.97 51.4C39.97 51.17 39.9 50.98 39.77 50.85C39.63 50.71 39.4 50.64 39.08 50.64ZM46.32 54.65L45.09 54.65L44.75 53.71L43.12 53.71L42.77 54.65L41.67 54.65L43.63 49.74L44.36 49.74L46.32 54.65ZM43.95 51.32L43.43 52.79L44.46 52.79L43.98 51.32L43.95 51.32ZM50.54 49.89L50.4 51.07C50.19 50.93 49.97 50.82 49.75 50.75C49.53 50.69 49.32 50.65 49.12 50.65C48.94 50.65 48.78 50.69 48.65 50.76C48.53 50.84 48.46 50.95 48.46 51.1C48.46 51.27 48.55 51.39 48.71 51.48C48.88 51.58 49.1 51.67 49.39 51.77C49.62 51.85 49.84 51.95 50.05 52.06C50.26 52.18 50.43 52.34 50.57 52.53C50.7 52.72 50.76 52.97 50.76 53.29C50.76 53.72 50.62 54.07 50.32 54.33C50.02 54.59 49.58 54.72 49.01 54.72C48.65 54.72 48.33 54.69 48.07 54.64C47.8 54.59 47.58 54.53 47.4 54.46L47.4 53.16C47.63 53.35 47.87 53.5 48.11 53.61C48.35 53.73 48.64 53.78 48.96 53.78C49.15 53.78 49.31 53.74 49.43 53.67C49.56 53.59 49.62 53.49 49.62 53.36C49.62 53.19 49.53 53.05 49.34 52.94C49.16 52.82 48.91 52.71 48.61 52.61C48.21 52.48 47.89 52.29 47.67 52.05C47.45 51.81 47.33 51.49 47.33 51.08C47.33 50.66 47.49 50.31 47.8 50.06C48.11 49.8 48.56 49.67 49.14 49.67C49.39 49.67 49.62 49.69 49.83 49.72C50.04 49.76 50.22 49.79 50.35 49.83C50.48 49.87 50.54 49.89 50.54 49.89ZM55.28 49.89L55.13 51.07C54.92 50.93 54.7 50.82 54.48 50.75C54.26 50.69 54.05 50.65 53.85 50.65C53.67 50.65 53.51 50.69 53.38 50.76C53.26 50.84 53.2 50.95 53.2 51.1C53.2 51.27 53.28 51.39 53.44 51.48C53.61 51.58 53.83 51.67 54.12 51.77C54.35 51.85 54.57 51.95 54.79 52.06C55 52.18 55.17 52.34 55.3 52.53C55.43 52.72 55.49 52.97 55.49 53.29C55.49 53.72 55.35 54.07 55.05 54.33C54.75 54.59 54.32 54.72 53.74 54.72C53.38 54.72 53.06 54.69 52.8 54.64C52.53 54.59 52.31 54.53 52.13 54.46L52.13 53.16C52.36 53.35 52.6 53.5 52.84 53.61C53.08 53.73 53.37 53.78 53.69 53.78C53.89 53.78 54.04 53.74 54.17 53.67C54.29 53.59 54.35 53.49 54.35 53.36C54.35 53.19 54.26 53.05 54.07 52.94C53.89 52.82 53.64 52.71 53.34 52.61C52.94 52.48 52.62 52.29 52.4 52.05C52.18 51.81 52.06 51.49 52.06 51.08C52.06 50.66 52.22 50.31 52.53 50.06C52.84 49.8 53.29 49.67 53.88 49.67C54.12 49.67 54.35 49.69 54.56 49.72C54.77 49.76 54.95 49.79 55.08 49.83C55.21 49.87 55.28 49.89 55.28 49.89Z" fill="#408077" fill-opacity="1.000000" fill-rule="nonzero"/>
	</g>
</svg>
