<svg width="512.000000" height="512.000000" viewBox="0 0 512 512" fill="none" xmlns="http://www.w3.org/2000/svg" xmlns:xlink="http://www.w3.org/1999/xlink">
	<desc>
			Created with Pixso.
	</desc>
	<defs/>
	<mask id="mask119_240" mask-type="alpha" maskUnits="userSpaceOnUse" x="0.000000" y="0.000000" width="512.000000" height="512.000000">
		<path id="Vector" d="M0 0L512 0L512 512L0 512L0 0Z" fill="#000000" fill-opacity="1.000000" fill-rule="evenodd"/>
	</mask>
	<g mask="url(#mask119_240)">
		<g style="mix-blend-mode:normal">
			<path id="Vector" d="M176.35 47.27C190.8 43.83 205.8 46.36 220.47 45.61C236.54 45.65 254.97 41.73 268.47 52.93C297.53 73.18 296.88 121.96 268.34 142.3C253.51 152.7 234.37 150.17 217.26 150.59C199.71 149.91 180.82 152.21 164.66 143.89C147.24 134.36 140.4 113.15 141.47 94.33C141.27 73.24 156.24 53.26 176.35 47.27Z" fill="#408077" fill-opacity="1.000000" fill-rule="nonzero"/>
			<path id="Vector" d="M220.47 45.61C236.54 45.65 254.97 41.73 268.47 52.93C297.53 73.18 296.88 121.96 268.34 142.3C253.51 152.7 234.37 150.17 217.26 150.59C199.71 149.91 180.82 152.21 164.66 143.89C147.24 134.36 140.4 113.15 141.47 94.33C141.27 73.24 156.24 53.26 176.35 47.27C190.8 43.83 205.8 46.36 220.47 45.61Z" stroke="#408077" stroke-opacity="1.000000" stroke-width="1.795840"/>
			<path id="Vector" d="M176.44 170.97C195.36 168.63 214.5 170.22 233.48 169.31C248.28 168.57 264.77 170.45 275.2 182.24C297.19 203.81 296.06 243.13 273.06 263.57C259.2 277.24 238.44 275.98 220.49 276.69C204.27 276.56 187.23 278.66 171.84 272.45C143.28 258.87 133.36 219.97 147.13 192.63C153.32 181.82 164.1 173.3 176.44 170.97Z" fill="#408077" fill-opacity="1.000000" fill-rule="nonzero"/>
			<path id="Vector" d="M233.48 169.31C248.28 168.57 264.77 170.45 275.2 182.24C297.19 203.81 296.06 243.13 273.06 263.57C259.2 277.24 238.44 275.98 220.49 276.69C204.27 276.56 187.23 278.66 171.84 272.45C143.28 258.87 133.36 219.97 147.13 192.63C153.32 181.82 164.1 173.3 176.44 170.97C195.36 168.63 214.5 170.22 233.48 169.31Z" stroke="#408077" stroke-opacity="1.000000" stroke-width="1.795840"/>
			<path id="Vector" d="M173.14 296.78C189.63 292.34 206.89 294.54 223.74 293.99C241.1 293.86 261.02 293.02 274.43 306.14C303.51 331.73 293.02 386.05 256.77 399.45C235.69 406.09 213.08 402.53 191.31 403.34C174.7 404.47 159.08 395.34 150.4 381.48C130.9 354.46 138.19 306.98 173.14 296.78L173.14 296.78Z" fill="#408077" fill-opacity="1.000000" fill-rule="nonzero"/>
			<path id="Vector" d="M223.74 293.99C241.1 293.86 261.02 293.02 274.43 306.14C303.51 331.73 293.02 386.05 256.77 399.45C235.69 406.09 213.08 402.53 191.31 403.34C174.7 404.47 159.08 395.34 150.4 381.48C130.9 354.46 138.19 306.98 173.14 296.78L173.14 296.78C189.63 292.34 206.89 294.54 223.74 293.99Z" stroke="#408077" stroke-opacity="1.000000" stroke-width="1.795840"/>
			<path id="Vector" d="M338.27 182.92C353.89 179.13 365.42 194.52 369.53 207.67C374.68 227.49 373.29 252.01 356.96 266.46C349.81 273.39 337.24 273.84 330.34 266.29C314.79 250.58 310.58 225.42 318.16 204.95C322.11 195.81 328.3 186.16 338.27 182.92Z" fill="#408077" fill-opacity="1.000000" fill-rule="nonzero"/>
			<path id="Vector" d="M369.53 207.67C374.68 227.49 373.29 252.01 356.96 266.46C349.81 273.39 337.24 273.84 330.34 266.29C314.79 250.58 310.58 225.42 318.16 204.95C322.11 195.81 328.3 186.16 338.27 182.92C353.89 179.13 365.42 194.52 369.53 207.67Z" stroke="#408077" stroke-opacity="1.000000" stroke-width="1.795840"/>
			<path id="Vector" d="M341.54 306.26C353.26 303.57 362.2 314.71 366.58 324.14C373.9 341.95 374.84 364.01 364.34 380.79C358.35 391.16 343.35 397.76 332.73 390.35C305.55 370.07 310.35 319.83 341.54 306.26Z" fill="#408077" fill-opacity="1.000000" fill-rule="nonzero"/>
			<path id="Vector" d="M366.58 324.14C373.9 341.95 374.84 364.01 364.34 380.79C358.35 391.16 343.35 397.76 332.73 390.35C305.55 370.07 310.35 319.83 341.54 306.26C353.26 303.57 362.2 314.71 366.58 324.14Z" stroke="#408077" stroke-opacity="1.000000" stroke-width="1.795840"/>
			<path id="Vector" d="M65.81 425.75L64.54 435.87C62.77 434.6 60.93 433.69 59.03 433.13C57.11 432.56 55.32 432.28 53.67 432.28C52.06 432.28 50.72 432.59 49.65 433.21C48.59 433.83 48.06 434.8 48.06 436.12C48.06 437.52 48.76 438.6 50.16 439.37C51.58 440.16 53.49 440.97 55.9 441.81C57.92 442.49 59.83 443.32 61.62 444.31C63.4 445.32 64.86 446.64 65.99 448.28C67.12 449.92 67.69 452.07 67.69 454.75C67.69 458.45 66.42 461.41 63.87 463.63C61.34 465.86 57.62 466.97 52.71 466.97C49.61 466.97 46.92 466.75 44.65 466.31C42.37 465.87 40.46 465.36 38.93 464.8L38.93 453.66C40.96 455.26 42.99 456.55 45.05 457.54C47.09 458.51 49.5 459 52.28 459C53.93 459 55.28 458.66 56.32 457.98C57.38 457.3 57.91 456.44 57.91 455.41C57.91 453.96 57.12 452.75 55.54 451.78C53.98 450.8 51.89 449.87 49.27 448.99C45.84 447.83 43.18 446.24 41.27 444.2C39.35 442.16 38.39 439.41 38.39 435.94C38.39 432.31 39.73 429.39 42.39 427.19C45.04 424.99 48.86 423.89 53.85 423.89C55.94 423.89 57.9 424.04 59.72 424.35C61.52 424.65 62.99 424.95 64.12 425.26C65.25 425.59 65.81 425.75 65.81 425.75ZM75.75 433.97L75.75 424.49L112.39 424.49L112.39 433.97C111.68 433.57 110.67 433.26 109.38 433.04C108.1 432.82 106.76 432.65 105.36 432.55C103.97 432.45 102.76 432.39 101.72 432.39L98.82 432.39L98.82 466.42L89.33 466.42L89.33 432.39L86.45 432.39C85.39 432.39 84.17 432.45 82.78 432.55C81.4 432.65 80.07 432.82 78.81 433.04C77.53 433.26 76.51 433.57 75.75 433.97ZM146.91 449.83L157.61 466.42L146.26 466.42L137.62 452.29C137.17 452.33 136.68 452.36 136.15 452.38C135.6 452.39 135.04 452.4 134.47 452.4L133.85 452.4C133.67 452.4 133.48 452.38 133.27 452.35L133.27 466.42L123.85 466.42L123.85 424.55C125.9 424.43 128.03 424.35 130.25 424.31C132.47 424.27 134.97 424.24 137.73 424.24C143.14 424.24 147.3 425.28 150.22 427.34C153.13 429.4 154.59 432.82 154.59 437.62C154.59 439.81 154.22 441.71 153.48 443.34C152.73 444.95 151.77 446.28 150.59 447.35C149.43 448.41 148.21 449.24 146.91 449.83ZM133.27 432.22L133.27 444.13C133.88 444.18 134.44 444.2 134.97 444.2L136.66 444.2C139.27 444.2 141.28 443.68 142.71 442.65C144.14 441.6 144.86 439.94 144.86 437.67C144.86 433.99 142.36 432.15 137.38 432.15L135.03 432.15C134.47 432.15 133.88 432.17 133.27 432.22ZM167.18 444.98C167.18 440.62 167.97 436.85 169.53 433.66C171.11 430.47 173.32 427.99 176.18 426.24C179.04 424.48 182.42 423.6 186.32 423.6C190.95 423.6 194.6 424.48 197.28 426.24C199.96 427.99 201.88 430.47 203.02 433.66C204.17 436.85 204.74 440.62 204.74 444.98C204.74 449.17 204.09 452.94 202.8 456.27C201.52 459.61 199.49 462.23 196.7 464.14C193.93 466.06 190.32 467.02 185.85 467.02C181.37 467.02 177.77 466.08 175.04 464.2C172.31 462.33 170.31 459.74 169.06 456.43C167.81 453.11 167.18 449.29 167.18 444.98ZM176.67 444.8C176.67 447.56 176.97 450 177.57 452.13C178.18 454.27 179.17 455.96 180.54 457.2C181.91 458.44 183.74 459.06 186.03 459.06C188.28 459.06 190.08 458.46 191.43 457.25C192.77 456.05 193.75 454.41 194.36 452.31C194.95 450.21 195.25 447.83 195.25 445.15C195.25 441.05 194.55 437.78 193.15 435.34C191.74 432.9 189.34 431.68 185.96 431.68C183.95 431.68 182.25 432.25 180.85 433.37C179.47 434.48 178.42 436.02 177.72 438C177.02 439.98 176.67 442.24 176.67 444.8ZM253.8 424.55L253.8 466.42L245.42 466.42L228.03 440.37L227.78 440.37L228.5 448.34L228.5 466.42L219.21 466.42L219.21 424.55L228.32 424.55L244.75 450.67L245 450.67L244.51 443.85L244.51 424.55L253.8 424.55ZM286.86 443L304.32 443L304.32 463.54C302.55 464.43 300.37 465.22 297.78 465.91C295.18 466.62 292.21 466.97 288.87 466.97C282.43 466.97 277.38 465.19 273.73 461.63C270.1 458.08 268.29 452.86 268.29 446C268.29 441.64 269.13 437.8 270.81 434.48C272.51 431.14 275 428.52 278.29 426.61C281.59 424.72 285.64 423.78 290.44 423.78C292.97 423.78 295.29 424.01 297.4 424.49C299.51 424.97 301.5 425.59 303.36 426.35L302.16 436.96C300.42 435.08 298.45 433.81 296.26 433.15C294.07 432.48 292.07 432.15 290.26 432.15C286.36 432.15 283.32 433.31 281.15 435.63C278.97 437.95 277.89 441.34 277.89 445.82C277.89 450.34 278.89 453.68 280.9 455.85C282.91 458.02 285.93 459.11 289.94 459.11C290.96 459.11 291.9 459.03 292.78 458.87C293.67 458.72 294.52 458.52 295.32 458.27L295.32 450.98C293.76 451.01 292.18 451.13 290.59 451.33C289 451.53 287.76 451.68 286.86 451.8L286.86 443ZM330.02 453.73L330.02 466.42L320.6 466.42L320.6 424.55C322.82 424.48 324.98 424.39 327.1 424.29C329.21 424.18 331.58 424.13 334.2 424.13C339.47 424.13 343.52 425.24 346.35 427.45C349.19 429.67 350.61 433.39 350.61 438.62C350.61 441.45 350.15 443.85 349.23 445.82C348.3 447.77 347.05 449.33 345.47 450.51C343.91 451.7 342.16 452.54 340.23 453.06C338.29 453.58 336.32 453.84 334.31 453.84C333.18 453.84 332.35 453.83 331.83 453.81C331.31 453.8 330.71 453.77 330.02 453.73ZM333.53 432.15L331.68 432.15C331.1 432.15 330.54 432.17 330.02 432.22L330.02 445.33C330.59 445.37 331.13 445.42 331.63 445.46C332.12 445.49 332.76 445.51 333.53 445.51C336.01 445.51 337.91 444.92 339.2 443.76C340.5 442.58 341.14 440.89 341.14 438.68C341.14 436.69 340.56 435.1 339.38 433.92C338.22 432.74 336.27 432.15 333.53 432.15ZM395.27 466.42L384.82 466.42L381.94 458.4L367.98 458.4L364.97 466.42L355.66 466.42L372.38 424.49L378.61 424.49L395.27 466.42ZM375.1 437.98L370.64 450.49L379.46 450.49L375.35 437.98L375.1 437.98ZM431.35 425.75L430.1 435.87C428.33 434.6 426.48 433.69 424.56 433.13C422.66 432.56 420.88 432.28 419.22 432.28C417.62 432.28 416.28 432.59 415.21 433.21C414.13 433.83 413.6 434.8 413.6 436.12C413.6 437.52 414.31 438.6 415.72 439.37C417.13 440.16 419.05 440.97 421.46 441.81C423.47 442.49 425.37 443.32 427.15 444.31C428.95 445.32 430.41 446.64 431.53 448.28C432.66 449.92 433.22 452.07 433.22 454.75C433.22 458.45 431.96 461.41 429.43 463.63C426.88 465.86 423.16 466.97 418.26 466.97C415.15 466.97 412.47 466.75 410.2 466.31C407.93 465.87 406.02 465.36 404.49 464.8L404.49 453.66C406.5 455.26 408.53 456.55 410.58 457.54C412.64 458.51 415.06 459 417.84 459C419.49 459 420.84 458.66 421.88 457.98C422.92 457.3 423.44 456.44 423.44 455.41C423.44 453.96 422.66 452.75 421.1 451.78C419.52 450.8 417.42 449.87 414.8 448.99C411.39 447.83 408.73 446.24 406.81 444.2C404.9 442.16 403.95 439.41 403.95 435.94C403.95 432.31 405.28 429.39 407.93 427.19C410.59 424.99 414.42 423.89 419.4 423.89C421.5 423.89 423.45 424.04 425.25 424.35C427.07 424.65 428.54 424.95 429.67 425.26C430.79 425.59 431.35 425.75 431.35 425.75ZM471.74 425.75L470.47 435.87C468.7 434.6 466.85 433.69 464.93 433.13C463.03 432.56 461.25 432.28 459.59 432.28C457.99 432.28 456.65 432.59 455.58 433.21C454.52 433.83 453.99 434.8 453.99 436.12C453.99 437.52 454.69 438.6 456.09 439.37C457.5 440.16 459.42 440.97 461.83 441.81C463.84 442.49 465.74 443.32 467.54 444.31C469.33 445.32 470.79 446.64 471.92 448.28C473.04 449.92 473.59 452.07 473.59 454.75C473.59 458.45 472.33 461.41 469.8 463.63C467.27 465.86 463.55 466.97 458.63 466.97C455.54 466.97 452.85 466.75 450.57 466.31C448.3 465.87 446.39 465.36 444.86 464.8L444.86 453.66C446.87 455.26 448.9 456.55 450.95 457.54C453.01 458.51 455.43 459 458.21 459C459.86 459 461.21 458.66 462.25 457.98C463.29 457.3 463.81 456.44 463.81 455.41C463.81 453.96 463.03 452.75 461.47 451.78C459.89 450.8 457.8 449.87 455.2 448.99C451.77 447.83 449.1 446.24 447.18 444.2C445.27 442.16 444.32 439.41 444.32 435.94C444.32 432.31 445.65 429.39 448.3 427.19C450.96 424.99 454.79 423.89 459.77 423.89C461.87 423.89 463.82 424.04 465.62 424.35C467.44 424.65 468.91 424.95 470.04 425.26C471.18 425.59 471.74 425.75 471.74 425.75Z" fill="#408077" fill-opacity="1.000000" fill-rule="nonzero"/>
		</g>
	</g>
</svg>
